<?xml version="1.0" encoding="utf-8"?>
<!-- Generator: Adobe Illustrator 27.0.0, SVG Export Plug-In . SVG Version: 6.00 Build 0)  -->
<svg version="1.1" id="Ñëîé_1" xmlns="http://www.w3.org/2000/svg" xmlns:xlink="http://www.w3.org/1999/xlink" x="0px" y="0px"
	 viewBox="0 0 2156.9 875.3" style="enable-background:new 0 0 2156.9 875.3;" xml:space="preserve">
<style type="text/css">
	.st0{opacity:0.8;}
	.st1{opacity:0.3;}
	.st2{opacity:0.9;stroke:#FFFFFF;stroke-width:0.5;stroke-miterlimit:10;}
	.st3{opacity:0.3;stroke:#FFFFFF;stroke-width:0.5;stroke-miterlimit:10;}
	.st4{opacity:0.6;stroke:#FFFFFF;stroke-width:0.5;stroke-miterlimit:10;}
	.st5{opacity:0.6;}
	.st6{opacity:0.3;fill:#6E6E6E;}
	.st7{opacity:0.6;fill:#6E6E6E;}
	.st8{fill:#5F5F5F;}
</style>
<g>
	<g class="st0">
		<g class="st1">
			<g class="st1">
				<polygon class="st2" points="2047,278 2047,320.2 2083.6,341.3 2120.1,320.2 2120.1,278 2083.6,256.9 				"/>
				<polygon class="st3" points="2083.6,341.3 2083.6,383.5 2120.1,404.6 2156.7,383.5 2156.7,341.3 2120.1,320.2 				"/>
				<polygon class="st3" points="2010.5,214.7 2010.5,256.9 2047,278 2083.6,256.9 2083.6,214.7 2047,193.6 				"/>
				<polygon class="st4" points="2010.5,341.3 2010.5,383.5 2047,404.6 2083.6,383.5 2083.6,341.3 2047,320.2 				"/>
				<polygon class="st2" points="1169.8,404.6 1169.8,446.8 1206.4,467.9 1242.9,446.8 1242.9,404.6 1206.4,383.5 				"/>
				<polygon class="st3" points="1316,404.6 1316,446.8 1352.6,467.9 1389.1,446.8 1389.1,404.6 1352.6,383.5 				"/>
				<polygon class="st3" points="1206.4,467.9 1206.4,510.1 1242.9,531.2 1279.5,510.1 1279.5,467.9 1242.9,446.8 				"/>
				<polygon class="st3" points="1096.7,531.2 1096.7,573.4 1133.3,594.5 1169.8,573.4 1169.8,531.2 1133.3,510.1 				"/>
				<polygon class="st3" points="1133.3,341.3 1133.3,383.5 1169.8,404.6 1206.4,383.5 1206.4,341.3 1169.8,320.2 				"/>
				<polygon class="st3" points="1316,531.2 1316,573.4 1352.6,594.5 1389.1,573.4 1389.1,531.2 1352.6,510.1 				"/>
				<polygon class="st4" points="1242.9,404.6 1242.9,446.8 1279.5,467.9 1316,446.8 1316,404.6 1279.5,383.5 				"/>
				<polygon class="st4" points="1133.3,467.9 1133.3,510.1 1169.8,531.2 1206.4,510.1 1206.4,467.9 1169.8,446.8 				"/>
				<polygon class="st2" points="1279.5,341.3 1279.5,383.5 1316,404.6 1352.6,383.5 1352.6,341.3 1316,320.2 				"/>
				<polygon class="st2" points="1279.5,467.9 1279.5,510.1 1316,531.2 1352.6,510.1 1352.6,467.9 1316,446.8 				"/>
				<polygon class="st2" points="1425.7,467.9 1389.1,446.8 1389.1,404.6 1425.7,383.5 1462.2,404.6 1462.2,446.8 				"/>
				<polygon class="st2" points="1462.2,278 1425.7,256.9 1425.7,214.7 1462.2,193.6 1498.8,214.7 1498.8,256.9 				"/>
				<polygon class="st3" points="1498.8,341.3 1462.2,320.2 1462.2,278 1498.8,256.9 1535.3,278 1535.3,320.2 				"/>
				<polygon class="st3" points="1352.6,341.3 1316,320.2 1316,278 1352.6,256.9 1389.1,278 1389.1,320.2 				"/>
				<polygon class="st4" points="1462.2,404.6 1425.7,383.5 1425.7,341.3 1462.2,320.2 1498.8,341.3 1498.8,383.5 				"/>
				<polygon class="st4" points="1389.1,278 1352.6,256.9 1352.6,214.7 1389.1,193.6 1425.7,214.7 1425.7,256.9 				"/>
				<polygon class="st3" points="1608.4,404.6 1571.9,383.5 1571.9,341.3 1608.4,320.2 1645,341.3 1645,383.5 				"/>
				<polygon class="st2" points="1535.3,404.6 1498.8,383.5 1498.8,341.3 1535.3,320.2 1571.9,341.3 1571.9,383.5 				"/>
				<polygon class="st2" points="1608.4,278 1571.9,256.9 1571.9,214.7 1608.4,193.6 1645,214.7 1645,256.9 				"/>
				<polygon class="st2" points="2010.5,383.5 2010.5,341.3 1973.9,320.2 1937.4,341.3 1937.4,383.5 1973.9,404.6 				"/>
				<polygon class="st3" points="1864.3,383.5 1864.3,341.3 1827.7,320.2 1791.2,341.3 1791.2,383.5 1827.7,404.6 				"/>
				<polygon class="st3" points="1718.1,383.5 1718.1,341.3 1681.5,320.2 1645,341.3 1645,383.5 1681.5,404.6 				"/>
				<polygon class="st3" points="1973.9,320.2 1973.9,278 1937.4,256.9 1900.8,278 1900.8,320.2 1937.4,341.3 				"/>
				<polygon class="st3" points="2047,446.8 2047,404.6 2010.5,383.5 1973.9,404.6 1973.9,446.8 2010.5,467.9 				"/>
				<polygon class="st3" points="1864.3,510.1 1864.3,467.9 1827.7,446.8 1791.2,467.9 1791.2,510.1 1827.7,531.2 				"/>
				<polygon class="st4" points="1937.4,383.5 1937.4,341.3 1900.8,320.2 1864.3,341.3 1864.3,383.5 1900.8,404.6 				"/>
				<polygon class="st4" points="2047,320.2 2047,278 2010.5,256.9 1973.9,278 1973.9,320.2 2010.5,341.3 				"/>
				<polygon class="st4" points="1937.4,256.9 1937.4,214.7 1900.8,193.6 1864.3,214.7 1864.3,256.9 1900.8,278 				"/>
				<polygon class="st3" points="1681.5,193.6 1681.5,151.4 1645,130.3 1608.4,151.4 1608.4,193.6 1645,214.7 				"/>
				<polygon class="st2" points="1900.8,446.8 1900.8,404.6 1864.3,383.5 1827.7,404.6 1827.7,446.8 1864.3,467.9 				"/>
				<polygon class="st2" points="1900.8,320.2 1900.8,278 1864.3,256.9 1827.7,278 1827.7,320.2 1864.3,341.3 				"/>
				<polygon class="st2" points="1754.6,320.2 1791.2,341.3 1791.2,383.5 1754.6,404.6 1718.1,383.5 1718.1,341.3 				"/>
				<polygon class="st3" points="1681.5,446.8 1718.1,467.9 1718.1,510.1 1681.5,531.2 1645,510.1 1645,467.9 				"/>
				<polygon class="st3" points="1718.1,256.9 1754.6,278 1754.6,320.2 1718.1,341.3 1681.5,320.2 1681.5,278 				"/>
				<polygon class="st4" points="1718.1,383.5 1754.6,404.6 1754.6,446.8 1718.1,467.9 1681.5,446.8 1681.5,404.6 				"/>
				<polygon class="st4" points="1571.9,383.5 1608.4,404.6 1608.4,446.8 1571.9,467.9 1535.3,446.8 1535.3,404.6 				"/>
				<polygon class="st4" points="1571.9,256.9 1608.4,278 1608.4,320.2 1571.9,341.3 1535.3,320.2 1535.3,278 				"/>
				<polygon class="st4" points="1681.5,193.6 1718.1,214.7 1718.1,256.9 1681.5,278 1645,256.9 1645,214.7 				"/>
				<polygon class="st2" points="1645,383.5 1681.5,404.6 1681.5,446.8 1645,467.9 1608.4,446.8 1608.4,404.6 				"/>
			</g>
			<g class="st5">
				<polygon class="st2" points="2010.5,256.9 2010.5,299.1 2047,320.2 2083.6,299.1 2083.6,256.9 2047,235.8 				"/>
				<polygon class="st3" points="2047,320.2 2047,362.4 2083.6,383.5 2120.1,362.4 2120.1,320.2 2083.6,299.1 				"/>
				<polygon class="st3" points="1973.9,193.6 1973.9,235.8 2010.5,256.9 2047,235.8 2047,193.6 2010.5,172.5 				"/>
				<polygon class="st4" points="1973.9,320.2 1973.9,362.4 2010.5,383.5 2047,362.4 2047,320.2 2010.5,299.1 				"/>
				<polygon class="st2" points="1133.3,383.5 1133.3,425.7 1169.8,446.8 1206.4,425.7 1206.4,383.5 1169.8,362.4 				"/>
				<polygon class="st3" points="1279.5,383.5 1279.5,425.7 1316,446.8 1352.6,425.7 1352.6,383.5 1316,362.4 				"/>
				<polygon class="st3" points="1169.8,446.8 1169.8,489 1206.4,510.1 1242.9,489 1242.9,446.8 1206.4,425.7 				"/>
				<polygon class="st3" points="1060.2,510.1 1060.2,552.3 1096.7,573.4 1133.3,552.3 1133.3,510.1 1096.7,489 				"/>
				<polygon class="st3" points="1096.7,320.2 1096.7,362.4 1133.3,383.5 1169.8,362.4 1169.8,320.2 1133.3,299.1 				"/>
				<polygon class="st3" points="1279.5,510.1 1279.5,552.3 1316,573.4 1352.6,552.3 1352.6,510.1 1316,489 				"/>
				<polygon class="st4" points="1206.4,383.5 1206.4,425.7 1242.9,446.8 1279.5,425.7 1279.5,383.5 1242.9,362.4 				"/>
				<polygon class="st4" points="1096.7,446.8 1096.7,489 1133.3,510.1 1169.8,489 1169.8,446.8 1133.3,425.7 				"/>
				<polygon class="st2" points="1242.9,320.2 1242.9,362.4 1279.5,383.5 1316,362.4 1316,320.2 1279.5,299.1 				"/>
				<polygon class="st2" points="1242.9,446.8 1242.9,489 1279.5,510.1 1316,489 1316,446.8 1279.5,425.7 				"/>
				<polygon class="st2" points="1389.1,446.8 1352.6,425.7 1352.6,383.5 1389.1,362.4 1425.7,383.5 1425.7,425.7 				"/>
				<polygon class="st2" points="1425.7,256.9 1389.1,235.8 1389.1,193.6 1425.7,172.5 1462.2,193.6 1462.2,235.8 				"/>
				<polygon class="st3" points="1462.2,320.2 1425.7,299.1 1425.7,256.9 1462.2,235.8 1498.8,256.9 1498.8,299.1 				"/>
				<polygon class="st3" points="1316,320.2 1279.5,299.1 1279.5,256.9 1316,235.8 1352.6,256.9 1352.6,299.1 				"/>
				<polygon class="st3" points="1425.7,510.1 1389.1,489 1389.1,446.8 1425.7,425.7 1462.2,446.8 1462.2,489 				"/>
				<polygon class="st4" points="1425.7,383.5 1389.1,362.4 1389.1,320.2 1425.7,299.1 1462.2,320.2 1462.2,362.4 				"/>
				<polygon class="st4" points="1352.6,256.9 1316,235.8 1316,193.6 1352.6,172.5 1389.1,193.6 1389.1,235.8 				"/>
				<polygon class="st3" points="1571.9,383.5 1535.3,362.4 1535.3,320.2 1571.9,299.1 1608.4,320.2 1608.4,362.4 				"/>
				<polygon class="st2" points="1498.8,383.5 1462.2,362.4 1462.2,320.2 1498.8,299.1 1535.3,320.2 1535.3,362.4 				"/>
				<polygon class="st2" points="1571.9,256.9 1535.3,235.8 1535.3,193.6 1571.9,172.5 1608.4,193.6 1608.4,235.8 				"/>
				<polygon class="st2" points="1973.9,362.4 1973.9,320.2 1937.4,299.1 1900.8,320.2 1900.8,362.4 1937.4,383.5 				"/>
				<polygon class="st3" points="1827.7,362.4 1827.7,320.2 1791.2,299.1 1754.6,320.2 1754.6,362.4 1791.2,383.5 				"/>
				<polygon class="st3" points="1681.5,362.4 1681.5,320.2 1645,299.1 1608.4,320.2 1608.4,362.4 1645,383.5 				"/>
				<polygon class="st3" points="1937.4,299.1 1937.4,256.9 1900.8,235.8 1864.3,256.9 1864.3,299.1 1900.8,320.2 				"/>
				<polygon class="st3" points="2010.5,425.7 2010.5,383.5 1973.9,362.4 1937.4,383.5 1937.4,425.7 1973.9,446.8 				"/>
				<polygon class="st3" points="1827.7,489 1827.7,446.8 1791.2,425.7 1754.6,446.8 1754.6,489 1791.2,510.1 				"/>
				<polygon class="st4" points="1900.8,362.4 1900.8,320.2 1864.3,299.1 1827.7,320.2 1827.7,362.4 1864.3,383.5 				"/>
				<polygon class="st4" points="2010.5,299.1 2010.5,256.9 1973.9,235.8 1937.4,256.9 1937.4,299.1 1973.9,320.2 				"/>
				<polygon class="st4" points="1900.8,235.8 1900.8,193.6 1864.3,172.5 1827.7,193.6 1827.7,235.8 1864.3,256.9 				"/>
				<polygon class="st3" points="1645,172.5 1645,130.3 1608.4,109.2 1571.9,130.3 1571.9,172.5 1608.4,193.6 				"/>
				<polygon class="st2" points="1864.3,425.7 1864.3,383.5 1827.7,362.4 1791.2,383.5 1791.2,425.7 1827.7,446.8 				"/>
				<polygon class="st2" points="1864.3,299.1 1864.3,256.9 1827.7,235.8 1791.2,256.9 1791.2,299.1 1827.7,320.2 				"/>
				<polygon class="st2" points="1718.1,299.1 1754.6,320.2 1754.6,362.4 1718.1,383.5 1681.5,362.4 1681.5,320.2 				"/>
				<polygon class="st3" points="1645,425.7 1681.5,446.8 1681.5,489 1645,510.1 1608.4,489 1608.4,446.8 				"/>
				<polygon class="st3" points="1681.5,235.8 1718.1,256.9 1718.1,299.1 1681.5,320.2 1645,299.1 1645,256.9 				"/>
				<polygon class="st4" points="1681.5,362.4 1718.1,383.5 1718.1,425.7 1681.5,446.8 1645,425.7 1645,383.5 				"/>
				<polygon class="st4" points="1535.3,362.4 1571.9,383.5 1571.9,425.7 1535.3,446.8 1498.8,425.7 1498.8,383.5 				"/>
				<polygon class="st4" points="1535.3,235.8 1571.9,256.9 1571.9,299.1 1535.3,320.2 1498.8,299.1 1498.8,256.9 				"/>
				<polygon class="st4" points="1645,172.5 1681.5,193.6 1681.5,235.8 1645,256.9 1608.4,235.8 1608.4,193.6 				"/>
				<polygon class="st2" points="1608.4,362.4 1645,383.5 1645,425.7 1608.4,446.8 1571.9,425.7 1571.9,383.5 				"/>
			</g>
		</g>
		<g class="st1">
			<g class="st1">
				<polygon class="st2" points="109.9,594.5 109.9,552.3 73.3,531.2 36.8,552.3 36.8,594.5 73.3,615.6 				"/>
				<polygon class="st3" points="73.3,531.2 73.3,489 36.8,467.9 0.2,489 0.2,531.2 36.8,552.3 				"/>
				<polygon class="st3" points="146.4,657.8 146.4,615.6 109.9,594.5 73.3,615.6 73.3,657.8 109.9,678.9 				"/>
				<polygon class="st4" points="146.4,531.2 146.4,489 109.9,467.9 73.3,489 73.3,531.2 109.9,552.3 				"/>
				<polygon class="st2" points="987.1,467.9 987.1,425.7 950.5,404.6 914,425.7 914,467.9 950.5,489 				"/>
				<polygon class="st3" points="840.9,467.9 840.9,425.7 804.3,404.6 767.8,425.7 767.8,467.9 804.3,489 				"/>
				<polygon class="st3" points="950.5,404.6 950.5,362.4 914,341.3 877.4,362.4 877.4,404.6 914,425.7 				"/>
				<polygon class="st3" points="1060.2,341.3 1060.2,299.1 1023.6,278 987.1,299.1 987.1,341.3 1023.6,362.4 				"/>
				<polygon class="st3" points="1023.6,531.2 1023.6,489 987.1,467.9 950.5,489 950.5,531.2 987.1,552.3 				"/>
				<polygon class="st3" points="840.9,341.3 840.9,299.1 804.3,278 767.8,299.1 767.8,341.3 804.3,362.4 				"/>
				<polygon class="st4" points="914,467.9 914,425.7 877.4,404.6 840.9,425.7 840.9,467.9 877.4,489 				"/>
				<polygon class="st4" points="1023.6,404.6 1023.6,362.4 987.1,341.3 950.5,362.4 950.5,404.6 987.1,425.7 				"/>
				<polygon class="st2" points="877.4,531.2 877.4,489 840.9,467.9 804.3,489 804.3,531.2 840.9,552.3 				"/>
				<polygon class="st2" points="877.4,404.6 877.4,362.4 840.9,341.3 804.3,362.4 804.3,404.6 840.9,425.7 				"/>
				<polygon class="st2" points="731.2,404.6 767.8,425.7 767.8,467.9 731.2,489 694.7,467.9 694.7,425.7 				"/>
				<polygon class="st2" points="694.7,594.5 731.2,615.6 731.2,657.8 694.7,678.9 658.1,657.8 658.1,615.6 				"/>
				<polygon class="st3" points="658.1,531.2 694.7,552.3 694.7,594.5 658.1,615.6 621.6,594.5 621.6,552.3 				"/>
				<polygon class="st3" points="804.3,531.2 840.9,552.3 840.9,594.5 804.3,615.6 767.8,594.5 767.8,552.3 				"/>
				<polygon class="st4" points="694.7,467.9 731.2,489 731.2,531.2 694.7,552.3 658.1,531.2 658.1,489 				"/>
				<polygon class="st4" points="767.8,594.5 804.3,615.6 804.3,657.8 767.8,678.9 731.2,657.8 731.2,615.6 				"/>
				<polygon class="st3" points="548.5,467.9 585,489 585,531.2 548.5,552.3 511.9,531.2 511.9,489 				"/>
				<polygon class="st2" points="621.6,467.9 658.1,489 658.1,531.2 621.6,552.3 585,531.2 585,489 				"/>
				<polygon class="st2" points="548.5,594.5 585,615.6 585,657.8 548.5,678.9 511.9,657.8 511.9,615.6 				"/>
				<polygon class="st2" points="146.4,489 146.4,531.2 183,552.3 219.5,531.2 219.5,489 183,467.9 				"/>
				<polygon class="st3" points="292.7,489 292.7,531.2 329.2,552.3 365.7,531.2 365.7,489 329.2,467.9 				"/>
				<polygon class="st3" points="438.8,489 438.8,531.2 475.4,552.3 511.9,531.2 511.9,489 475.4,467.9 				"/>
				<polygon class="st3" points="183,552.3 183,594.5 219.5,615.6 256.1,594.5 256.1,552.3 219.5,531.2 				"/>
				<polygon class="st3" points="109.9,425.7 109.9,467.9 146.4,489 183,467.9 183,425.7 146.4,404.6 				"/>
				<polygon class="st3" points="292.7,362.4 292.7,404.6 329.2,425.7 365.7,404.6 365.7,362.4 329.2,341.3 				"/>
				<polygon class="st4" points="219.5,489 219.5,531.2 256.1,552.3 292.7,531.2 292.7,489 256.1,467.9 				"/>
				<polygon class="st4" points="109.9,552.3 109.9,594.5 146.4,615.6 183,594.5 183,552.3 146.4,531.2 				"/>
				<polygon class="st4" points="219.5,615.6 219.5,657.8 256.1,678.9 292.7,657.8 292.7,615.6 256.1,594.5 				"/>
				<polygon class="st3" points="475.4,678.9 475.4,721.1 511.9,742.2 548.5,721.1 548.5,678.9 511.9,657.8 				"/>
				<polygon class="st2" points="256.1,425.7 256.1,467.9 292.7,489 329.2,467.9 329.2,425.7 292.7,404.6 				"/>
				<polygon class="st2" points="256.1,552.3 256.1,594.5 292.7,615.6 329.2,594.5 329.2,552.3 292.7,531.2 				"/>
				<polygon class="st2" points="402.3,552.3 365.7,531.2 365.7,489 402.3,467.9 438.8,489 438.8,531.2 				"/>
				<polygon class="st3" points="475.4,425.7 438.8,404.6 438.8,362.4 475.4,341.3 511.9,362.4 511.9,404.6 				"/>
				<polygon class="st3" points="438.8,615.6 402.3,594.5 402.3,552.3 438.8,531.2 475.4,552.3 475.4,594.5 				"/>
				<polygon class="st4" points="438.8,489 402.3,467.9 402.3,425.7 438.8,404.6 475.4,425.7 475.4,467.9 				"/>
				<polygon class="st4" points="585,489 548.5,467.9 548.5,425.7 585,404.6 621.6,425.7 621.6,467.9 				"/>
				<polygon class="st4" points="585,615.6 548.5,594.5 548.5,552.3 585,531.2 621.6,552.3 621.6,594.5 				"/>
				<polygon class="st4" points="475.4,678.9 438.8,657.8 438.8,615.6 475.4,594.5 511.9,615.6 511.9,657.8 				"/>
				<polygon class="st2" points="511.9,489 475.4,467.9 475.4,425.7 511.9,404.6 548.5,425.7 548.5,467.9 				"/>
			</g>
			<g class="st5">
				<polygon class="st2" points="146.4,615.6 146.4,573.4 109.9,552.3 73.3,573.4 73.3,615.6 109.9,636.7 				"/>
				<polygon class="st3" points="109.9,552.3 109.9,510.1 73.3,489 36.8,510.1 36.8,552.3 73.3,573.4 				"/>
				<polygon class="st3" points="183,678.9 183,636.7 146.4,615.6 109.9,636.7 109.9,678.9 146.4,700 				"/>
				<polygon class="st4" points="183,552.3 183,510.1 146.4,489 109.9,510.1 109.9,552.3 146.4,573.4 				"/>
				<polygon class="st2" points="1023.6,489 1023.6,446.8 987.1,425.7 950.5,446.8 950.5,489 987.1,510.1 				"/>
				<polygon class="st3" points="877.4,489 877.4,446.8 840.9,425.7 804.3,446.8 804.3,489 840.9,510.1 				"/>
				<polygon class="st3" points="987.1,425.7 987.1,383.5 950.5,362.4 914,383.5 914,425.7 950.5,446.8 				"/>
				<polygon class="st3" points="1096.7,362.4 1096.7,320.2 1060.2,299.1 1023.6,320.2 1023.6,362.4 1060.2,383.5 				"/>
				<polygon class="st3" points="1060.2,552.3 1060.2,510.1 1023.6,489 987.1,510.1 987.1,552.3 1023.6,573.4 				"/>
				<polygon class="st3" points="877.4,362.4 877.4,320.2 840.9,299.1 804.3,320.2 804.3,362.4 840.9,383.5 				"/>
				<polygon class="st4" points="950.5,489 950.5,446.8 914,425.7 877.4,446.8 877.4,489 914,510.1 				"/>
				<polygon class="st4" points="1060.2,425.7 1060.2,383.5 1023.6,362.4 987.1,383.5 987.1,425.7 1023.6,446.8 				"/>
				<polygon class="st2" points="914,552.3 914,510.1 877.4,489 840.9,510.1 840.9,552.3 877.4,573.4 				"/>
				<polygon class="st2" points="914,425.7 914,383.5 877.4,362.4 840.9,383.5 840.9,425.7 877.4,446.8 				"/>
				<polygon class="st2" points="767.8,425.7 804.3,446.8 804.3,489 767.8,510.1 731.2,489 731.2,446.8 				"/>
				<polygon class="st2" points="731.2,615.6 767.8,636.7 767.8,678.9 731.2,700 694.7,678.9 694.7,636.7 				"/>
				<polygon class="st3" points="694.7,552.3 731.2,573.4 731.2,615.6 694.7,636.7 658.1,615.6 658.1,573.4 				"/>
				<polygon class="st3" points="840.9,552.3 877.4,573.4 877.4,615.6 840.9,636.7 804.3,615.6 804.3,573.4 				"/>
				<polygon class="st3" points="731.2,362.4 767.8,383.5 767.8,425.7 731.2,446.8 694.7,425.7 694.7,383.5 				"/>
				<polygon class="st4" points="731.2,489 767.8,510.1 767.8,552.3 731.2,573.4 694.7,552.3 694.7,510.1 				"/>
				<polygon class="st4" points="804.3,615.6 840.9,636.7 840.9,678.9 804.3,700 767.8,678.9 767.8,636.7 				"/>
				<polygon class="st3" points="585,489 621.6,510.1 621.6,552.3 585,573.4 548.5,552.3 548.5,510.1 				"/>
				<polygon class="st2" points="658.1,489 694.7,510.1 694.7,552.3 658.1,573.4 621.6,552.3 621.6,510.1 				"/>
				<polygon class="st2" points="585,615.6 621.6,636.7 621.6,678.9 585,700 548.5,678.9 548.5,636.7 				"/>
				<polygon class="st2" points="183,510.1 183,552.3 219.5,573.4 256.1,552.3 256.1,510.1 219.5,489 				"/>
				<polygon class="st3" points="329.2,510.1 329.2,552.3 365.7,573.4 402.3,552.3 402.3,510.1 365.7,489 				"/>
				<polygon class="st3" points="475.4,510.1 475.4,552.3 511.9,573.4 548.5,552.3 548.5,510.1 511.9,489 				"/>
				<polygon class="st3" points="219.5,573.4 219.5,615.6 256.1,636.7 292.7,615.6 292.7,573.4 256.1,552.3 				"/>
				<polygon class="st3" points="146.4,446.8 146.4,489 183,510.1 219.5,489 219.5,446.8 183,425.7 				"/>
				<polygon class="st3" points="329.2,383.5 329.2,425.7 365.7,446.8 402.3,425.7 402.3,383.5 365.7,362.4 				"/>
				<polygon class="st4" points="256.1,510.1 256.1,552.3 292.7,573.4 329.2,552.3 329.2,510.1 292.7,489 				"/>
				<polygon class="st4" points="146.4,573.4 146.4,615.6 183,636.7 219.5,615.6 219.5,573.4 183,552.3 				"/>
				<polygon class="st4" points="256.1,636.7 256.1,678.9 292.7,700 329.2,678.9 329.2,636.7 292.7,615.6 				"/>
				<polygon class="st3" points="511.9,700 511.9,742.2 548.5,763.3 585,742.2 585,700 548.5,678.9 				"/>
				<polygon class="st2" points="292.7,446.8 292.7,489 329.2,510.1 365.7,489 365.7,446.8 329.2,425.7 				"/>
				<polygon class="st2" points="292.7,573.4 292.7,615.6 329.2,636.7 365.7,615.6 365.7,573.4 329.2,552.3 				"/>
				<polygon class="st2" points="438.8,573.4 402.3,552.3 402.3,510.1 438.8,489 475.4,510.1 475.4,552.3 				"/>
				<polygon class="st3" points="511.9,446.8 475.4,425.7 475.4,383.5 511.9,362.4 548.5,383.5 548.5,425.7 				"/>
				<polygon class="st3" points="475.4,636.7 438.8,615.6 438.8,573.4 475.4,552.3 511.9,573.4 511.9,615.6 				"/>
				<polygon class="st4" points="475.4,510.1 438.8,489 438.8,446.8 475.4,425.7 511.9,446.8 511.9,489 				"/>
				<polygon class="st4" points="621.6,510.1 585,489 585,446.8 621.6,425.7 658.1,446.8 658.1,489 				"/>
				<polygon class="st4" points="621.6,636.7 585,615.6 585,573.4 621.6,552.3 658.1,573.4 658.1,615.6 				"/>
				<polygon class="st4" points="511.9,700 475.4,678.9 475.4,636.7 511.9,615.6 548.5,636.7 548.5,678.9 				"/>
				<polygon class="st2" points="548.5,510.1 511.9,489 511.9,446.8 548.5,425.7 585,446.8 585,489 				"/>
			</g>
		</g>
		<g>
			<path class="st6" d="M1078.5,590.2l37.7-21.8l37.7,21.8l37.8-21.8l0.1-0.1l0-43.5l37.4-21.6l37.7,21.8l37.8-21.8l0.1-0.1v-43.5
				l37.4-21.6l37.4,21.6V503l37.9,21.9l37.8-21.8l0.1-0.1v-43.8l-37.7-21.8v-43.2l37.6-21.7l0.1-0.1V329l37.4-21.6l37.4,21.6v43.5
				l37.7,21.8v43.5l37.7,21.7V503l37.9,21.9l37.8-21.8l0.1-0.1v-43.8l-37.7-21.8v-43.2l37.5-21.7l0.1-0.1V329l37.4-21.6l37.4,21.6
				v43.5l37.9,21.9l37.8-21.8l0.1-0.1v-43.8l-37.7-21.8v-43.2l37.4-21.6l37.4,21.6l0,43.5l0.5-0.3v-43.2l-0.2-0.4l-37.4-21.6v-43.2
				l37.4-21.6l0.2-0.4V133l-37.7-21.8V67.7l-37.9-21.9l-37.9,21.9v43.8l37.7,21.8v43.2l-37.7,21.8v43.5l-37.4,21.6l-37.4-21.6v-43.5
				l-37.9-21.9l-37.9,21.9V242l37.7,21.7l0,43.2l-37.4,21.6l-37.4-21.6v-43.5l-37.9-21.9l-37.7,21.8l-37.4-21.6v-43.5l-37.9-21.9
				l-37.7,21.8l-37.7-21.8l-37.9,21.9V242l37.9,21.9l37.7-21.7l37.4,21.6V307l-37.4,21.6l-37.7-21.7l-37.8,21.8l-0.1,0.1v43.5
				l-37.6,21.7l-0.1,0.1v43.5l-37.4,21.6l-37.7-21.8l-37.8,21.8l-0.1,0.1v43.5l-37.4,21.6l-37.7-21.8l-37.8,21.8l-0.1,0.1v43.8
				L1078.5,590.2z M1831.7,329l0,43.2l-37.4,21.6l-37.4-21.6V329l37.4-21.6L1831.7,329z M1869.4,133.3v43.2l-32.8,18.9l-4.7,2.7
				l-18.7-10.8l-18.7-10.8v-43.2l37.4-21.6L1869.4,133.3z M1756.8,111.2V68l37.4-21.6l37.4,21.6v43.2l-4.7,2.7l-32.8,18.9
				L1756.8,111.2z M1756.8,198.5l37.5-21.6l18.7,10.8l18.7,10.8v43.2l-37.4,21.6l-37.4-21.6V198.5z M1719.2,263.8l37.5-21.6l6.4,3.7
				l31,17.9V307l-37.4,21.6l-37.5-21.6V263.8z M1681,459.5l0,43.2l-37.4,21.6l-37.4-21.6v-43.2l30.5-17.6l6.9-4L1681,459.5z
				 M1718.7,263.8V307l-37.4,21.6l-37.4-21.6v-43.2l37.4-21.6L1718.7,263.8z M1606.1,241.8l0-43.2l37.4-21.6l37.4,21.6v43.2
				l-37.4,21.6L1606.1,241.8z M1606.1,329l37.4-21.6l18.7,10.8L1681,329l0,43.2l-37.4,21.6l-37.4-21.6V329z M1610.9,375.5l32.5,18.7
				l0,43.2l-12.1,7l-25.3,14.6l-37.4-21.6v-43.2l37.4-21.6L1610.9,375.5z M1605.7,329l0,43.2l-37.4,21.6l-37.4-21.6V329l37.4-21.6
				L1605.7,329z M1493.1,263.8l37.4-21.6l37.4,21.6l0,43.2l-37.4,21.6l-37.4-21.6V263.8z M1379.6,241.8l-37.4,21.6l-37.4-21.6v-43.2
				l37.4-21.6l37.4,21.6V241.8z M1455,459.5v43.2l-37.4,21.6l-37.4-21.6v-43.2l37.4-21.6L1455,459.5z M1492.7,263.8V307l-37.5,21.6
				l-18.7-10.8l-18.7-10.8v-43.2l37.4-21.6L1492.7,263.8z M1380.1,241.8v-43.2l37.4-21.6l37.4,21.6v43.2l-37.4,21.6L1380.1,241.8z
				 M1380.1,329l37.4-21.6l18.7,10.8L1455,329v43.2l-37.4,21.6l-37.4-21.6V329z M1389.6,378.3l27.8,16v43.2l-37.4,21.6l-37.4-21.6
				v-43.2l37.4-21.6L1389.6,378.3z M1304.7,329l37.4-21.6l37.5,21.6l0,43.2l-37.4,21.6l-37.4-21.6V329z M1267.1,394.3l37.4-21.6
				l18.7,10.8l18.7,10.8l0,43.2l-37.4,21.6l-18.7-10.8l-18.7-10.8V394.3z M1229.4,459.5l37.5-21.6l37.4,21.6v43.2l-37.4,21.6
				l-37.5-21.6V459.5z M1154,459.5l37.5-21.6l37.4,21.6v43.2l-37.4,21.6l-12.3-7.1l-25.1-14.5V459.5z M1116.4,524.8l37.4-21.6
				l14.9,8.6l22.5,13V568l-37.4,21.6l-37.4-21.6V524.8z M1041,524.8l37.4-21.6l37.4,21.6V568l-37.4,21.6L1041,568V524.8z"/>
			<path class="st6" d="M1078.5,285.1l-37.7,21.8l-37.7-21.8l-37.8,21.8l-0.1,0.1l0,43.5l-37.4,21.6l-37.7-21.8l-37.8,21.8l-0.1,0.1
				v43.5l-37.4,21.6l-37.4-21.6v-43.5l-37.9-21.9l-37.8,21.8l-0.1,0.1V416l37.7,21.8V481l-37.6,21.7l-0.1,0.1v43.5L664,567.9
				l-37.5-21.6v-43.5L588.9,481v-43.5l-37.7-21.7v-43.5l-37.9-21.9l-37.8,21.8l-0.1,0.1V416l37.7,21.8l0,43.2l-37.6,21.7l-0.1,0.1
				v43.5L438,567.9l-37.4-21.6v-43.5l-37.9-21.9l-37.8,21.8l-0.1,0.1l0,43.8l37.7,21.8v43.2L325,633.2l-37.4-21.6V568l-0.5,0.3v43.2
				l0.2,0.4l37.4,21.6v43.2l-37.4,21.6l-0.2,0.4l0,43.5l37.7,21.7l0,43.5l37.9,21.9l37.9-21.9v-43.8L362.9,742v-43.2l37.7-21.8
				v-43.5l37.4-21.6l37.4,21.6v43.5l37.9,21.9l37.9-21.9v-43.8l-37.7-21.7v-43.2l37.4-21.6l37.4,21.6v43.5l37.9,21.9l37.7-21.8
				l37.4,21.6v43.5l37.9,21.9l37.7-21.8l37.7,21.8l37.9-21.9v-43.8l-37.9-21.9l-37.7,21.7l-37.4-21.6v-43.2l37.4-21.6l37.7,21.7
				l37.8-21.8l0.1-0.1V503l37.6-21.7l0.1-0.1v-43.5l37.5-21.6l37.7,21.7l37.8-21.8l0.1-0.1v-43.5l37.4-21.6l37.7,21.8l37.8-21.8
				l0.1-0.1V307L1078.5,285.1z M325.2,546.3V503l37.4-21.6l37.4,21.6v43.2l-37.4,21.6L325.2,546.3z M287.5,742v-43.2l32.8-18.9
				l4.7-2.7l18.7,10.8l18.7,10.8V742L325,763.7L287.5,742z M400.1,764.1v43.2l-37.4,21.6l-37.4-21.6v-43.2l4.7-2.7l32.8-18.9
				L400.1,764.1z M400.1,676.8l-37.4,21.6l-18.7-10.8l-18.7-10.8v-43.2l37.4-21.6l37.4,21.6V676.8z M437.7,611.5l-37.4,21.6
				l-6.4-3.7l-31-17.9v-43.2l37.4-21.6l37.4,21.6V611.5z M475.9,415.8v-43.2l37.4-21.6l37.4,21.6v43.2l-30.5,17.6l-6.9,4
				L475.9,415.8z M438.2,611.5v-43.2l37.4-21.6l37.4,21.6v43.2l-37.4,21.6L438.2,611.5z M550.8,633.5v43.2l-37.4,21.6l-37.4-21.6
				v-43.2l37.4-21.6L550.8,633.5z M550.8,546.3l-37.4,21.6l-18.7-10.8l-18.7-10.8V503l37.4-21.6l37.4,21.6V546.3z M546,499.8
				L513.6,481v-43.2l12.1-7l25.3-14.6l37.4,21.6V481L551,502.6L546,499.8z M551.2,546.3V503l37.4-21.6l37.4,21.6v43.2l-37.4,21.6
				L551.2,546.3z M663.8,611.5l-37.4,21.6l-37.4-21.6v-43.2l37.4-21.6l37.4,21.6V611.5z M777.3,633.5l37.4-21.6l37.4,21.6v43.2
				l-37.4,21.6l-37.4-21.6V633.5z M701.9,415.8v-43.2l37.4-21.6l37.4,21.6v43.2l-37.4,21.6L701.9,415.8z M664.3,611.5v-43.2
				l37.4-21.6l18.7,10.8l18.7,10.8v43.2l-37.5,21.6L664.3,611.5z M776.8,633.5v43.2l-37.4,21.6l-37.4-21.6v-43.2l37.4-21.6
				L776.8,633.5z M776.8,546.3l-37.4,21.6l-18.7-10.8l-18.7-10.8V503l37.4-21.6l37.4,21.6V546.3z M767.4,497l-27.8-16v-43.2
				l37.4-21.6l37.4,21.6V481l-37.4,21.6L767.4,497z M852.2,546.3l-37.4,21.6l-37.4-21.6V503l37.4-21.6l37.4,21.6L852.2,546.3z
				 M889.9,481l-37.4,21.6l-18.7-10.8L815,481v-43.2l37.4-21.6l18.7,10.8l18.7,10.8V481z M927.5,415.8l-37.5,21.6l-37.4-21.6v-43.2
				l37.4-21.6l37.4,21.6L927.5,415.8z M1002.9,415.8l-37.4,21.6L928,415.8v-43.2l37.4-21.6l12.3,7.1l25.1,14.5V415.8z M1040.6,350.5
				l-37.4,21.6l-14.9-8.6l-22.5-13l0-43.2l37.4-21.6l37.4,21.6V350.5z M1115.9,350.5l-37.4,21.6l-37.4-21.6l0-43.2l37.4-21.6
				l37.4,21.6V350.5z"/>
			<path class="st7" d="M1078.7,502.8v-43.5l-37.9-21.9l-37.7,21.8l-37.7-21.8l-37.9,21.9l0,43.5l-37.5,21.6l-37.7-21.7l-37.9,21.9
				V568l-37.4,21.6L739.6,568v-43.5l-37.7-21.7v-43.2l37.7-21.7v-43.5l37.4-21.6l37.7,21.8l37.9-21.9v-43.8L815,307v-43.5
				l-37.9-21.9l-37.9,21.9V307l-37.7,21.7v43.5L664,393.9l-37.7-21.8L588.4,394v43.8l37.7,21.7v43.2l-37.7,21.7V568L551,589.7
				L513.6,568v-43.5l-37.7-21.7v-43.5l-37.7-21.8V394l-37.9-21.9L362.4,394v43.8l37.7,21.7v43.2l-37.7,21.7V568L325,589.7L287.5,568
				H287l0.2,0.4l37.4,21.6v43.2l-37.4,21.6l-0.2,0.4v43.2l0.5,0.3v-43.5l37.4-21.6l37.4,21.6v43.5l37.9,21.9l37.9-21.9V655
				l-37.7-21.8v-43.2l37.4-21.6l37.4,21.6v43.5l37.7,21.8v43.5l37.9,21.9l37.9-21.9v-43.5l37.7-21.8V590l37.5-21.6l37.4,21.6v43.5
				l37.7,21.7v43.5l37.9,21.9l37.9-21.9v-43.5l37.7-21.7v-43.5l37.4-21.6l37.7,21.8l37.9-21.9v-43.5l37.4-21.6l37.4,21.6v43.5
				l37.9,21.9l37.9-21.9v-43.8L1078.7,502.8z M852.2,329v43.2l-37.4,21.6l-37.4-21.6V329l4.7-2.7l32.8-18.9L852.2,329z M739.6,263.8
				l37.4-21.6l37.4,21.6V307l-37.4,21.6l-18.7-10.8L739.6,307V263.8z M701.9,329l37.4-21.6l18.7,10.8l18.7,10.8v43.2l-37.4,21.6
				l-30.1-17.4l-7.3-4.2V329z M664.3,394.3l37.4-21.6l37.5,21.6v43.2l-37.5,21.6l-32.8-18.9l-4.7-2.7V394.3z M588.9,437.5v-43.2
				l37.4-21.6l37.4,21.6v43.2l-37.4,21.6L588.9,437.5z M362.9,437.5v-43.2l37.4-21.6l37.4,21.6v43.2L419,448.3l-18.7,10.8
				L362.9,437.5z M325.2,633.3V590l37.4-21.6l37.4,21.6v43.2l-37.4,21.6L325.2,633.3z M437.7,655.3v43.2l-37.4,21.6l-37.4-21.6
				v-43.2l7.5-4.3l30-17.3L437.7,655.3z M437.7,568l-37.4,21.6l-30-17.3l-7.5-4.3v-43.2l37.4-21.6L419,514l18.7,10.8V568z
				 M400.5,502.8v-43.2l18.7-10.8l18.7-10.8l37.4,21.6v43.2l-29.7,17.2l-7.7,4.4L400.5,502.8z M438.2,568v-43.2l37.4-21.6l37.5,21.6
				l0,43.2l-18.7,10.8l-18.7,10.8L438.2,568z M475.9,633.3V590l18.7-10.8l18.7-10.8l37.4,21.6v43.2l-7.5,4.3l-30,17.3L475.9,633.3z
				 M588.4,698.5L551,720.2l-37.4-21.6v-43.2l37.4-21.6l18.7,10.8l18.7,10.8V698.5z M626.1,633.3l-37.4,21.6L570,644.1l-18.7-10.8
				l0-43.2l37.4-21.6l18.7,10.8l18.7,10.8V633.3z M663.8,568l-37.4,21.6l-18.7-10.8L588.9,568v-43.2l37.4-21.6l37.4,21.6L663.8,568z
				 M626.6,502.8v-43.2l34.1-19.7l3.4-1.9l37.4,21.6v43.2L664,524.4L626.6,502.8z M664.3,568v-43.2l4.8-2.8l32.7-18.9l37.5,21.6V568
				l-37.5,21.6L664.3,568z M701.9,633.3V590l18.7-10.8l18.7-10.8l37.4,21.6v43.2l-18.7,10.8l-18.7,10.8L701.9,633.3z M814.5,698.5
				l-37.4,21.6l-37.4-21.6v-43.2l18.7-10.8l18.7-10.8l37.4,21.6V698.5z M852.2,633.3l-37.4,21.6l-34.1-19.7l-3.3-1.9V590l37.4-21.6
				l31.6,18.2l5.8,3.4V633.3z M889.9,568l-37.4,21.6l-24.2-14L815,568v-43.2l37.4-21.6l37.4,21.6V568z M965.2,568l-37.4,21.6
				L890.3,568v-43.2l37.5-21.6l18.7,10.8l18.7,10.8V568z M1002.9,502.8l-37.4,21.6l-18.7-10.8L928,502.8v-43.2l37.4-21.6l37.4,21.6
				V502.8z M1003.3,502.8v-43.2l37.4-21.6l37.4,21.6v43.2l-18.7,10.8l-18.7,10.8L1003.3,502.8z M1115.9,568l-37.4,21.6L1041,568
				v-43.2l18.7-10.8l18.7-10.8l37.4,21.6V568z"/>
			<path class="st7" d="M1078.2,372.5V416l37.9,21.9l37.7-21.8l37.7,21.8l37.9-21.9l0-43.5l37.5-21.6l37.7,21.8l37.9-21.9v-43.5
				l37.4-21.6l37.4,21.6v43.5l37.7,21.7v43.2l-37.7,21.8l0,43.5l-37.4,21.6l-37.7-21.7l-37.9,21.9v43.8l37.7,21.7v43.5l37.9,21.9
				l37.9-21.9l0-43.5l37.7-21.7V503l37.4-21.6l37.7,21.8l37.9-21.9v-43.8l-37.7-21.8v-43.2l37.7-21.7v-43.5l37.4-21.6l37.4,21.6
				v43.5l37.7,21.7V416l37.7,21.8v43.5l37.9,21.9l37.9-21.9v-43.8l-37.7-21.8v-43.2l37.7-21.7v-43.5l37.4-21.6l37.4,21.6h0.5
				l-0.2-0.4l-37.4-21.6V242l37.4-21.6l0.2-0.4v-43.2l-0.5-0.3l0,43.5l-37.4,21.6l-37.4-21.6v-43.5l-37.9-21.9l-37.9,21.9v43.8
				l37.7,21.8v43.2l-37.4,21.6l-37.4-21.6v-43.5l-37.7-21.8v-43.5l-37.9-21.9l-37.9,21.9l0,43.5l-37.7,21.7v43.5l-37.4,21.6
				l-37.4-21.6v-43.5l-37.7-21.7v-43.5l-37.9-21.9l-37.9,21.9V220l-37.7,21.7v43.5l-37.4,21.6l-37.7-21.8l-37.9,21.9v43.5
				l-37.5,21.6l-37.4-21.6l0-43.5l-37.9-21.9l-37.9,21.9v43.8L1078.2,372.5z M1304.7,546.3V503l37.4-21.6l37.4,21.6v43.2l-4.7,2.7
				l-32.8,18.9L1304.7,546.3z M1417.3,611.5l-37.4,21.6l-37.4-21.6v-43.2l37.4-21.6l18.7,10.8l18.7,10.8L1417.3,611.5z M1455,546.3
				l-37.4,21.6l-18.7-10.8l-18.7-10.8V503l37.4-21.6l30.1,17.4l7.3,4.2L1455,546.3z M1492.7,481l-37.4,21.6l-37.4-21.6v-43.2
				l37.4-21.6l32.8,18.9l4.7,2.7V481z M1568,437.8l0,43.2l-37.4,21.6l-37.4-21.6v-43.2l37.4-21.6L1568,437.8z M1794.1,437.8V481
				l-37.4,21.6l-37.4-21.6v-43.2l18.7-10.8l18.7-10.8L1794.1,437.8z M1831.7,242l0,43.2l-37.4,21.6l-37.5-21.6V242l37.4-21.6
				L1831.7,242z M1719.2,220v-43.2l37.4-21.6l37.4,21.6V220l-7.5,4.3l-29.9,17.3L1719.2,220z M1719.2,307.3l37.4-21.6l29.9,17.3
				l7.5,4.3v43.2l-37.4,21.6l-18.7-10.8l-18.7-10.8L1719.2,307.3z M1756.4,372.5v43.2l-18.7,10.8l-18.7,10.8l-37.4-21.6v-43.2
				l29.7-17.2l7.7-4.5L1756.4,372.5z M1718.7,307.3l0,43.2l-37.4,21.6l-37.4-21.6v-43.2l18.7-10.8l18.7-10.8L1718.7,307.3z
				 M1681,242v43.2l-18.7,10.8l-18.7,10.8l-37.4-21.6l0-43.2l7.5-4.3l30-17.3L1681,242z M1568.5,176.8l37.4-21.6l37.4,21.6V220
				l-37.4,21.6l-18.7-10.8l-18.7-10.8V176.8z M1530.8,242l37.4-21.6l18.7,10.8l18.7,10.8v43.2l-37.4,21.6l-18.7-10.8l-18.7-10.8V242
				z M1493.1,307.3l37.4-21.6l18.7,10.8l18.7,10.8v43.2l-37.4,21.6l-37.4-21.6V307.3z M1530.3,372.5v43.2l-34.1,19.7l-3.4,1.9
				l-37.4-21.6v-43.2l37.4-21.6L1530.3,372.5z M1492.7,307.3v43.2l-4.8,2.8l-32.7,18.8l-37.4-21.6v-43.2l37.4-21.6L1492.7,307.3z
				 M1455,242v43.2l-18.7,10.8l-18.7,10.8l-37.4-21.6V242l18.7-10.8l18.7-10.8L1455,242z M1342.4,176.8l37.4-21.6l37.4,21.6l0,43.2
				l-18.7,10.8l-18.7,10.8l-37.4-21.6V176.8z M1304.7,242l37.4-21.6l34.1,19.7l3.4,1.9l0,43.2l-37.4,21.6l-31.6-18.2l-5.8-3.4V242z
				 M1267.1,307.3l37.4-21.6l24.2,14l13.3,7.7l0,43.2l-37.4,21.6l-37.4-21.6L1267.1,307.3z M1191.7,307.3l37.4-21.6l37.4,21.6v43.2
				l-37.4,21.6l-18.7-10.8l-18.7-10.8L1191.7,307.3z M1154,372.5l37.4-21.6l18.7,10.8l18.7,10.8v43.2l-37.4,21.6l-37.4-21.6V372.5z
				 M1153.6,372.5v43.2l-37.4,21.6l-37.4-21.6v-43.2l18.7-10.8l18.7-10.8L1153.6,372.5z M1041,307.3l37.4-21.6l37.4,21.6l0,43.2
				l-18.7,10.8l-18.7,10.8l-37.4-21.6V307.3z"/>
			<path class="st8" d="M1076.1,545.3c-0.2,0.3-0.3,0.7-0.3,1.1c0,1.4,1.2,2.6,2.6,2.6c1.4,0,2.6-1.2,2.6-2.6c0-0.4-0.1-0.8-0.3-1.1
				l35.3-20.4l37.7,21.8l35.5-20.5c0.5,0.7,1.3,1.1,2.1,1.1c1.4,0,2.6-1.2,2.6-2.6c0-1.4-1.1-2.5-2.4-2.6l0-40.8l35.3-20.4
				c0.5,0.7,1.3,1.1,2.1,1.1c0.9,0,1.7-0.4,2.1-1.1l35.5,20.5l37.9-21.9V416l37.5-21.6l35.3,20.4c-0.2,0.3-0.3,0.7-0.3,1.1
				c0,1.4,1.1,2.5,2.4,2.6v41l37.9,21.9l35.5-20.5c0.5,0.7,1.2,1.1,2.1,1.1c1.4,0,2.6-1.2,2.6-2.6c0-1.4-1-2.5-2.4-2.6v-41
				l-37.7-21.8l0-40.8c1.3-0.1,2.4-1.2,2.4-2.6c0-0.4-0.1-0.8-0.2-1.1l35.5-20.5v-41c1.3-0.1,2.4-1.2,2.4-2.6c0-0.4-0.1-0.8-0.2-1.1
				l35.3-20.4l37.4,21.6v40.8c-1.3,0.1-2.4,1.2-2.4,2.6c0,1.5,1.2,2.6,2.6,2.6c0.9,0,1.7-0.4,2.1-1.1l35.3,20.4l0,43.5l35.5,20.5
				c-0.2,0.3-0.2,0.7-0.2,1.1c0,1.4,1.1,2.5,2.4,2.6v41l35.5,20.5c-0.1,0.3-0.3,0.7-0.3,1.1c0,1.4,1.2,2.6,2.6,2.6
				c1.4,0,2.6-1.2,2.6-2.6c0-0.4-0.1-0.8-0.3-1.1l35.5-20.5v-41c1.3-0.1,2.4-1.2,2.4-2.6c0-1.5-1.2-2.6-2.6-2.6
				c-0.9,0-1.7,0.4-2.1,1.1l-35.3-20.4l0-40.8c1.3-0.1,2.4-1.2,2.4-2.6c0-0.4-0.1-0.8-0.3-1.1l35.5-20.5v-43.5l35.3-20.4
				c0.5,0.7,1.3,1.1,2.1,1.1c0.9,0,1.7-0.4,2.1-1.1l35.3,20.4l0,40.8c-1.3,0.1-2.4,1.2-2.4,2.6c0,1.5,1.2,2.6,2.6,2.6
				c0.9,0,1.7-0.4,2.1-1.1l35.5,20.5l37.9-21.9v-41c1.3-0.1,2.4-1.2,2.4-2.6c0-1.4-1.2-2.6-2.6-2.6c-0.9,0-1.7,0.4-2.1,1.1
				l-35.3-20.4l0-40.8c1.3-0.1,2.4-1.2,2.4-2.6c0-0.4-0.1-0.8-0.2-1.1l35.3-20.4l35.3,20.4c-0.2,0.3-0.2,0.7-0.2,1.1
				c0,1.4,1,2.5,2.4,2.6v41l0.5-0.3v-40.8c1.3-0.1,2.4-1.2,2.4-2.6c0-0.4-0.1-0.8-0.2-1.1l-0.2-0.4c-0.5-0.7-1.2-1.1-2.1-1.1
				c-0.9,0-1.7,0.4-2.1,1.1l-35.3-20.4v-40.8c1.3-0.1,2.4-1.2,2.4-2.6c0-0.4-0.1-0.8-0.2-1.1l35.3-20.4l0.2-0.4V92.2
				c1.3-0.1,2.4-1.2,2.4-2.6c0-1.4-1.2-2.6-2.6-2.6c-0.9,0-1.7,0.4-2.1,1.1l-35.3-20.4V24.2l-35.5-20.5c0.2-0.3,0.2-0.7,0.2-1.1
				c0-1.5-1.2-2.6-2.6-2.6c-1.5,0-2.6,1.2-2.6,2.6c0,0.4,0.1,0.8,0.2,1.1l-35.4,20.5l-0.1,0.1l0,43.8l35.5,20.5
				c-0.2,0.3-0.2,0.7-0.2,1.1c0,1.4,1.1,2.5,2.4,2.6V133l-35.3,20.4c-0.5-0.7-1.3-1.1-2.1-1.1c-1.4,0-2.6,1.2-2.6,2.6
				c0,1.4,1.1,2.5,2.4,2.6l0,40.8l-37.4,21.6l-37.4-21.6v-43.5l-35.5-20.5c0.2-0.3,0.3-0.7,0.3-1.1c0-1.4-1.2-2.6-2.6-2.6
				c-1.4,0-2.6,1.2-2.6,2.6c0,0.4,0.1,0.8,0.2,1.1l-35.5,20.5l0,41c-1.3,0.1-2.4,1.2-2.4,2.6c0,1.4,1.2,2.6,2.6,2.6
				c0.9,0,1.7-0.4,2.1-1.1l35.3,20.4l0,40.8c-1.3,0.1-2.4,1.2-2.4,2.6c0,0.4,0.1,0.8,0.3,1.1l-35.3,20.4l-35.3-20.4
				c0.2-0.3,0.2-0.7,0.2-1.1c0-1.4-1.1-2.5-2.4-2.6v-41l-37.9-21.9l-35.5,20.5c-0.5-0.7-1.3-1.1-2.1-1.1c-0.9,0-1.7,0.4-2.1,1.1
				l-35.3-20.4v-43.5l-35.5-20.5c0.2-0.3,0.2-0.7,0.2-1.1c0-1.4-1.2-2.6-2.6-2.6c-1.4,0-2.6,1.2-2.6,2.6c0,0.4,0.1,0.8,0.3,1.1
				l-35.3,20.4l-37.7-21.7l-35.5,20.5c-0.5-0.7-1.3-1.1-2.1-1.1c-1.4,0-2.6,1.2-2.6,2.6c0,1.4,1.1,2.5,2.4,2.6v41l37.9,21.9
				l35.5-20.5c0.5,0.7,1.2,1.1,2.1,1.1c0.9,0,1.7-0.4,2.1-1.1l35.3,20.4l0,43.2l-35.3,20.4c-0.5-0.7-1.2-1.1-2.1-1.1
				c-0.9,0-1.7,0.4-2.1,1.1l-35.5-20.5l-35.5,20.5c-0.5-0.7-1.3-1.1-2.1-1.1c-1.4,0-2.6,1.2-2.6,2.6c0,1.4,1.1,2.5,2.4,2.6v40.8
				l-37.7,21.8v41c-1.3,0.1-2.4,1.2-2.4,2.6c0,0.4,0.1,0.8,0.2,1.1l-35.3,20.4l-37.7-21.7l-35.5,20.5c-0.5-0.7-1.3-1.1-2.1-1.1
				c-1.4,0-2.6,1.2-2.6,2.6c0,1.4,1.1,2.5,2.4,2.6v40.8l-35.3,20.4c-0.5-0.7-1.2-1.1-2.1-1.1c-0.9,0-1.7,0.4-2.1,1.1l-35.5-20.5
				l-37.9,21.9v43.8L1076.1,545.3z M1829.6,284.3c-0.2,0.3-0.2,0.7-0.2,1.1c0,1.4,1.1,2.5,2.4,2.6l0,40.8l-37.4,21.6L1759,330
				c0.2-0.3,0.2-0.7,0.2-1.1c0-1.4-1-2.5-2.4-2.6v-40.8l4.8-2.8l32.6-18.8L1829.6,284.3z M1867.3,88.5c-0.2,0.3-0.2,0.7-0.2,1.1
				c0,1.4,1,2.5,2.4,2.6l0,40.8l-32.8,18.9l-2.5,1.5c-0.5-0.7-1.3-1.1-2.1-1.1c-0.9,0-1.7,0.4-2.1,1.1l-16.6-9.6l-18.7-10.8V92.2
				c1.3-0.1,2.4-1.2,2.4-2.6c0-0.4-0.1-0.8-0.2-1.1l35.3-20.4L1867.3,88.5z M1792.1,88.1l-35.3-20.4V24.5l35.3-20.4
				c0.5,0.7,1.2,1.1,2.1,1.1c0.9,0,1.7-0.4,2.1-1.1l35.3,20.4v43.2l-35.3,20.4c-0.5-0.7-1.3-1.1-2.1-1.1
				C1793.4,87,1792.6,87.5,1792.1,88.1z M1756.8,157.5c1.3-0.1,2.4-1.2,2.4-2.6c0-0.4-0.1-0.8-0.2-1.1l35.3-20.4l18.7,10.8l16.6,9.6
				c-0.2,0.3-0.3,0.7-0.3,1.1c0,1.4,1,2.5,2.4,2.6v40.8l-35.3,20.4c-0.5-0.7-1.3-1.1-2.1-1.1c-0.9,0-1.7,0.4-2.1,1.1l-30.7-17.7
				l-4.6-2.6V157.5z M1719.2,220.3l37.5-21.6l35.3,20.4c-0.2,0.3-0.2,0.7-0.2,1.1c0,1.4,1.1,2.5,2.4,2.6l0,40.8l-37.5,21.6
				l-35.3-20.4c0.2-0.3,0.3-0.7,0.2-1.1c0-1.4-1-2.5-2.4-2.6V220.3z M1678.9,414.8c-0.2,0.3-0.2,0.7-0.2,1.1c0,1.4,1,2.5,2.4,2.6
				l0,40.8l-35.3,20.4c-0.5-0.7-1.2-1.1-2.1-1.1c-0.9,0-1.7,0.4-2.1,1.1l-35.3-20.4v-40.8c1.3-0.1,2.4-1.2,2.4-2.6
				c0-0.4-0.1-0.8-0.2-1.1l28.9-16.7l6.4-3.7L1678.9,414.8z M1718.7,220.3l0,40.8c-1.3,0.1-2.4,1.2-2.4,2.6c0,0.4,0.1,0.8,0.2,1.1
				l-35.3,20.4l-18.7-10.8l-16.6-9.6c0.2-0.3,0.3-0.7,0.3-1.1c0-1.4-1.1-2.5-2.4-2.6l0-40.8l37.4-21.6L1718.7,220.3z M1608.3,199.5
				c0.2-0.3,0.2-0.7,0.2-1.1c0-1.4-1.1-2.5-2.4-2.6l0-40.8l35.3-20.4c0.5,0.7,1.3,1.1,2.1,1.1c0.9,0,1.7-0.4,2.1-1.1L1681,155v43.2
				l-1.3,0.8l-36.1,20.9L1608.3,199.5z M1606.1,285.5l35.3-20.4c0.5,0.7,1.2,1.1,2.1,1.1c0.9,0,1.7-0.4,2.1-1.1l16.6,9.6l18.7,10.8
				l0,43.2l-35.3,20.4c-0.5-0.7-1.2-1.1-2.1-1.1c-0.9,0-1.7,0.4-2.1,1.1l-32.2-18.6l-3.1-1.8L1606.1,285.5z M1641.2,349.6
				c-0.1,0.3-0.2,0.7-0.2,1.1c0,1.4,1,2.5,2.4,2.6l0,40.8l-35.3,20.4c-0.5-0.7-1.3-1.1-2.1-1.1c-0.9,0-1.7,0.4-2.1,1.1l-35.3-20.4
				v-43.2l18.7-10.8l18.7-10.8L1641.2,349.6z M1570.4,265.1l35.3,20.4v43.2l-18.7,10.8l-18.7,10.8l-35.3-20.4
				c0.2-0.3,0.2-0.7,0.2-1.1c0-1.4-1-2.5-2.4-2.6v-40.8l18.7-10.8l16.6-9.6c0.5,0.7,1.3,1.1,2.1,1.1
				C1569.1,266.3,1569.9,265.8,1570.4,265.1z M1493.1,222.7c1.3-0.1,2.4-1.2,2.4-2.6c0-0.4-0.1-0.8-0.2-1.1l35.3-20.4l37.4,21.6
				l0,40.8c-1.3,0.1-2.4,1.2-2.4,2.6c0,0.4,0.1,0.8,0.3,1.1l-16.6,9.6l-18.7,10.8l-37.4-21.6L1493.1,222.7z M1379.6,195.8
				c-1.3,0.1-2.4,1.2-2.4,2.6c0,0.4,0.1,0.8,0.3,1.1l-35.3,20.4l-37.5-21.6v-40.8c1.3-0.1,2.4-1.2,2.4-2.6c0-0.4-0.1-0.8-0.3-1.1
				l35.3-20.4l37.4,21.6V195.8z M1455,416v40.8c-1.3,0.1-2.4,1.2-2.4,2.6c0,0.4,0.1,0.8,0.2,1.1l-35.3,20.4l-37.4-21.6v-40.8
				c1.3-0.1,2.4-1.2,2.4-2.6c0-0.4-0.1-0.8-0.3-1.1l16.6-9.6l18.7-10.8L1455,416z M1490.5,219c-0.2,0.3-0.2,0.7-0.3,1.1
				c0,1.4,1.1,2.5,2.4,2.6l0,40.8l-35.3,20.4c-0.5-0.7-1.3-1.1-2.1-1.1c-0.9,0-1.7,0.4-2.1,1.1l-16.6-9.6l-18.7-10.8v-43.2
				l37.4-21.6L1490.5,219z M1382.2,199.5c0.2-0.3,0.3-0.7,0.3-1.1c0-1.4-1.1-2.5-2.4-2.6V155l35.3-20.4c0.5,0.7,1.3,1.1,2.1,1.1
				c0.9,0,1.7-0.4,2.1-1.1L1455,155v43.2l-2.1,1.2l-35.4,20.4L1382.2,199.5z M1380.1,288c1.3-0.1,2.4-1.2,2.4-2.6
				c0-0.4-0.1-0.8-0.3-1.1l35.3-20.4l18.7,10.8l16.6,9.6c-0.2,0.3-0.2,0.7-0.2,1.1c0,1.4,1,2.5,2.4,2.6l0,40.8l-35.3,20.4
				c-0.5-0.7-1.3-1.1-2.1-1.1c-0.9,0-1.7,0.4-2.1,1.1l-28-16.2l-7.3-4.2V288z M1415.2,349.5c-0.2,0.3-0.3,0.7-0.3,1.1
				c0,1.4,1.1,2.5,2.4,2.6V394l-18.7,10.8l-16.6,9.6c-0.5-0.7-1.2-1.1-2.1-1.1c-0.9,0-1.7,0.4-2.1,1.1l-35.3-20.4v-40.8
				c1.3-0.1,2.4-1.2,2.4-2.6c0-0.4-0.1-0.8-0.3-1.1l16.6-9.6l18.7-10.8L1415.2,349.5z M1304.7,288c1.3-0.1,2.4-1.2,2.4-2.6
				c0-0.4-0.1-0.8-0.2-1.1l35.3-20.4l35.3,20.4c-0.2,0.3-0.3,0.7-0.3,1.1c0,1.4,1.1,2.5,2.4,2.6v40.8l-18.7,10.8l-16.6,9.6
				c-0.5-0.7-1.3-1.1-2.1-1.1c-0.9,0-1.7,0.4-2.1,1.1l-16.6-9.6l-18.7-10.8V288z M1267.1,350.8l37.4-21.6l18.7,10.8l16.6,9.6
				c-0.2,0.3-0.3,0.7-0.3,1.1c0,1.4,1.1,2.5,2.4,2.6V394l-37.4,21.6l-18.7-10.8l-16.6-9.6c0.2-0.3,0.2-0.7,0.2-1.1
				c0-1.4-1-2.5-2.4-2.6V350.8z M1229.4,416l35.3-20.4c0.5,0.7,1.3,1.1,2.1,1.1c0.9,0,1.7-0.4,2.1-1.1l16.6,9.6l18.7,10.8v43.2
				l-37.4,21.6l-35.3-20.4c0.2-0.3,0.3-0.7,0.3-1.1c0-1.4-1.1-2.5-2.4-2.6V416z M1154,418.5c1.3-0.1,2.4-1.2,2.4-2.6
				c0-0.4-0.1-0.8-0.2-1.1l35.3-20.4l37.4,21.6v40.8c-1.3,0.1-2.4,1.2-2.4,2.6c0,0.4,0.1,0.8,0.3,1.1l-35.3,20.4l-24.1-13.9
				l-13.4-7.7V418.5z M1116.4,483.8c1.3-0.1,2.4-1.2,2.4-2.6c0-0.4-0.1-0.8-0.2-1.1l35.3-20.4l31.2,18l6.2,3.6l0,40.8
				c-1.3,0.1-2.4,1.2-2.4,2.6c0,0.4,0.1,0.8,0.3,1.1l-35.3,20.4l-37.4-21.6V483.8z M1041,481.3l37.4-21.6l35.3,20.4
				c-0.2,0.3-0.2,0.7-0.2,1.1c0,1.4,1,2.5,2.4,2.6l0,40.8l-35.3,20.4c-0.5-0.7-1.2-1.1-2.1-1.1c-0.9,0-1.7,0.4-2.1,1.1l-35.3-20.4
				V481.3z"/>
			<path class="st8" d="M1080.8,330c0.2-0.3,0.3-0.7,0.3-1.1c0-1.5-1.2-2.6-2.6-2.6c-1.4,0-2.6,1.2-2.6,2.6c0,0.4,0.1,0.8,0.3,1.1
				l-35.3,20.4l-37.7-21.8l-35.5,20.5c-0.5-0.7-1.3-1.1-2.1-1.1c-1.4,0-2.6,1.2-2.6,2.6c0,1.4,1.1,2.5,2.4,2.6V394l-35.3,20.4
				c-0.5-0.7-1.2-1.1-2.1-1.1c-0.9,0-1.7,0.4-2.1,1.1l-35.5-20.5l-37.9,21.9v43.5l-37.4,21.6l-35.3-20.4c0.2-0.3,0.2-0.7,0.2-1.1
				c0-1.4-1.1-2.5-2.4-2.6v-41l-37.9-21.9l-35.5,20.5c-0.5-0.7-1.2-1.1-2.1-1.1c-1.4,0-2.6,1.2-2.6,2.6c0,1.4,1.1,2.5,2.4,2.6v41
				l37.7,21.8v40.8c-1.3,0.1-2.4,1.2-2.4,2.6c0,0.4,0.1,0.8,0.2,1.1l-35.5,20.5v41c-1.3,0.1-2.4,1.2-2.4,2.6c0,0.4,0.1,0.8,0.3,1.1
				L664,611.4l-37.4-21.6V549c1.3-0.1,2.4-1.2,2.4-2.6c0-1.5-1.2-2.6-2.6-2.6c-0.9,0-1.7,0.4-2.1,1.1l-35.3-20.4V481l-35.5-20.5
				c0.2-0.3,0.2-0.7,0.2-1.1c0-1.4-1-2.5-2.4-2.6v-41l-35.5-20.5c0.2-0.3,0.3-0.7,0.3-1.1c0-1.4-1.2-2.6-2.6-2.6
				c-1.4,0-2.6,1.2-2.6,2.6c0,0.4,0.1,0.8,0.2,1.1l-35.5,20.5v41c-1.3,0.1-2.4,1.2-2.4,2.6c0,1.4,1.2,2.6,2.6,2.6
				c0.9,0,1.7-0.4,2.1-1.1l35.3,20.4v40.8c-1.3,0.1-2.4,1.2-2.4,2.6c0,0.4,0.1,0.8,0.2,1.1l-35.5,20.5v43.5l-35.3,20.4
				c-0.5-0.7-1.3-1.1-2.1-1.1c-0.9,0-1.7,0.5-2.1,1.1l-35.3-20.4V549c1.3-0.1,2.4-1.2,2.4-2.6c0-1.5-1.2-2.6-2.6-2.6
				c-0.9,0-1.7,0.4-2.1,1.1l-35.5-20.5l-37.9,21.9v41c-1.3,0.1-2.4,1.2-2.4,2.6c0,1.4,1.2,2.6,2.6,2.6c0.9,0,1.7-0.4,2.1-1.1
				l35.3,20.4v40.8c-1.3,0.1-2.4,1.2-2.4,2.6c0,0.4,0.1,0.8,0.3,1.1L325,676.7l-35.3-20.4c0.2-0.3,0.3-0.7,0.3-1.1
				c0-1.4-1.1-2.5-2.4-2.6v-41l-0.5,0.3v40.8c-1.3,0.1-2.4,1.2-2.4,2.6c0,0.4,0.1,0.8,0.3,1.1l0.2,0.4c0.5,0.7,1.2,1.1,2.1,1.1
				c0.9,0,1.7-0.4,2.1-1.1l35.3,20.4v40.8c-1.3,0.1-2.4,1.2-2.4,2.6c0,0.4,0.1,0.8,0.2,1.1l-35.3,20.4l-0.2,0.4v40.8
				c-1.3,0.1-2.4,1.2-2.4,2.6c0,1.5,1.2,2.6,2.6,2.6c0.9,0,1.7-0.4,2.1-1.1l35.3,20.4v43.5l35.5,20.5c-0.2,0.3-0.3,0.7-0.3,1.1
				c0,1.5,1.2,2.6,2.6,2.6c1.4,0,2.6-1.2,2.6-2.6c0-0.4-0.1-0.8-0.3-1.1l35.4-20.5l0.1-0.1v-43.8L365,786.8c0.2-0.3,0.3-0.7,0.3-1.1
				c0-1.4-1.1-2.5-2.4-2.6v-40.8l35.3-20.4c0.5,0.7,1.3,1.1,2.1,1.1c1.4,0,2.6-1.2,2.6-2.6c0-1.4-1-2.5-2.4-2.6v-40.8l37.4-21.6
				l37.4,21.6v43.5l35.5,20.5c-0.2,0.3-0.2,0.7-0.2,1.1c0,1.4,1.2,2.6,2.6,2.6c1.4,0,2.6-1.2,2.6-2.6c0-0.4-0.1-0.8-0.3-1.1
				l35.5-20.5l0-41c1.3-0.1,2.4-1.2,2.4-2.6c0-1.4-1.2-2.6-2.6-2.6c-0.9,0-1.7,0.4-2.1,1.1L513.6,655v-40.8c1.3-0.1,2.4-1.2,2.4-2.6
				c0-0.4-0.1-0.8-0.3-1.1l35.3-20.4l35.3,20.4c-0.1,0.3-0.2,0.7-0.2,1.1c0,1.4,1,2.5,2.4,2.6v41l37.9,21.9l35.5-20.5
				c0.5,0.7,1.2,1.1,2.1,1.1c0.9,0,1.7-0.4,2.1-1.1l35.3,20.4v43.5l35.5,20.5c-0.2,0.3-0.2,0.7-0.2,1.1c0,1.4,1.2,2.6,2.6,2.6
				c1.4,0,2.6-1.2,2.6-2.6c0-0.4-0.1-0.8-0.2-1.1l35.3-20.4l37.7,21.7l35.5-20.5c0.5,0.7,1.2,1.1,2.1,1.1c1.4,0,2.6-1.2,2.6-2.6
				c0-1.4-1.1-2.5-2.4-2.6v-41l-37.9-21.9l-35.5,20.5c-0.5-0.7-1.3-1.1-2.1-1.1c-0.9,0-1.7,0.4-2.1,1.1L739.6,655v-43.2l35.3-20.4
				c0.5,0.7,1.3,1.1,2.1,1.1c0.9,0,1.7-0.4,2.1-1.1l35.5,20.5l35.5-20.5c0.5,0.7,1.3,1.1,2.1,1.1c1.4,0,2.6-1.2,2.6-2.6
				c0-1.4-1.1-2.5-2.4-2.6v-40.8l37.7-21.8v-41c1.3-0.1,2.4-1.2,2.4-2.6c0-0.4-0.1-0.8-0.2-1.1l35.3-20.4l37.7,21.8l35.5-20.5
				c0.5,0.7,1.3,1.1,2.1,1.1c1.4,0,2.6-1.2,2.6-2.6c0-1.4-1.1-2.5-2.4-2.6V416l35.3-20.4c0.5,0.7,1.3,1.1,2.1,1.1
				c0.9,0,1.7-0.4,2.1-1.1l35.5,20.5l37.9-21.9l0-43.8L1080.8,330z M327.3,591c0.2-0.3,0.3-0.7,0.3-1.1c0-1.4-1.1-2.5-2.4-2.6v-40.8
				l37.4-21.6l35.3,20.4c-0.1,0.3-0.2,0.7-0.2,1.1c0,1.4,1.1,2.5,2.4,2.6v40.8l-4.8,2.8l-32.6,18.8L327.3,591z M289.6,786.8
				c0.2-0.3,0.3-0.7,0.3-1.1c0-1.4-1-2.5-2.4-2.6v-40.8l32.8-18.9l2.5-1.5c0.5,0.7,1.3,1.1,2.1,1.1c0.9,0,1.7-0.4,2.1-1.1l16.6,9.6
				l18.7,10.8v40.8c-1.3,0.1-2.4,1.2-2.4,2.6c0,0.4,0.1,0.8,0.3,1.1L325,807.2L289.6,786.8z M364.8,787.2l35.3,20.4v43.2l-35.3,20.4
				c-0.5-0.7-1.3-1.1-2.1-1.1c-0.9,0-1.7,0.4-2.1,1.1l-35.3-20.4v-43.2l35.3-20.4c0.5,0.7,1.3,1.1,2.1,1.1
				C363.5,788.3,364.3,787.9,364.8,787.2z M400.1,717.8c-1.3,0.1-2.4,1.2-2.4,2.6c0,0.4,0.1,0.8,0.2,1.1l-35.3,20.4l-18.7-10.8
				l-16.6-9.6c0.2-0.3,0.3-0.7,0.3-1.1c0-1.4-1.1-2.5-2.4-2.6v-40.8l35.3-20.4c0.5,0.7,1.3,1.1,2.1,1.1c0.9,0,1.7-0.4,2.1-1.1
				l30.7,17.7l4.6,2.6V717.8z M437.8,655l-37.4,21.6L365,656.3c0.2-0.3,0.3-0.7,0.3-1.1c0-1.4-1.1-2.5-2.4-2.6v-40.8l37.4-21.6
				l35.3,20.4c-0.2,0.3-0.3,0.7-0.3,1.1c0,1.4,1.1,2.5,2.4,2.6L437.8,655z M478,460.5c0.2-0.3,0.2-0.7,0.2-1.1
				c0-1.4-1.1-2.5-2.4-2.6l0-40.8l35.3-20.4c0.5,0.7,1.3,1.1,2.1,1.1c0.9,0,1.7-0.4,2.1-1.1l35.3,20.4v40.8
				c-1.3,0.1-2.4,1.2-2.4,2.6c0,0.4,0.1,0.8,0.2,1.1l-28.9,16.7l-6.4,3.7L478,460.5z M438.2,655v-40.8c1.3-0.1,2.4-1.2,2.4-2.6
				c0-0.4-0.1-0.8-0.3-1.1l35.3-20.4l18.7,10.8l16.6,9.6c-0.2,0.3-0.2,0.7-0.2,1.1c0,1.4,1.1,2.5,2.4,2.6l0,40.8l-37.4,21.6
				L438.2,655z M548.6,675.8c-0.2,0.3-0.2,0.7-0.2,1.1c0,1.4,1,2.5,2.4,2.6v40.8l-35.3,20.4c-0.5-0.7-1.3-1.1-2.1-1.1
				c-0.9,0-1.7,0.4-2.1,1.1l-35.3-20.4v-43.2l1.3-0.8l36.1-20.9L548.6,675.8z M550.8,589.8l-35.3,20.4c-0.5-0.7-1.3-1.1-2.1-1.1
				c-0.9,0-1.7,0.5-2.1,1.1l-16.6-9.6l-18.7-10.8l0-43.2l35.3-20.4c0.5,0.7,1.2,1.1,2.1,1.1c0.9,0,1.7-0.4,2.1-1.1l32.2,18.6
				l3.1,1.8V589.8z M515.7,525.8c0.2-0.3,0.2-0.7,0.2-1.1c0-1.4-1.1-2.5-2.4-2.6v-40.8l35.3-20.4c0.5,0.7,1.3,1.1,2.1,1.1
				c0.9,0,1.7-0.4,2.1-1.1l35.3,20.4v43.2l-18.7,10.8L551,546.1L515.7,525.8z M586.5,610.2l-35.3-20.4l0-43.2l18.7-10.8l18.7-10.8
				l35.3,20.4c-0.2,0.3-0.2,0.7-0.2,1.1c0,1.4,1.1,2.5,2.4,2.6l0,40.8l-18.7,10.8l-16.6,9.6c-0.5-0.7-1.3-1.1-2.1-1.1
				C587.8,609,587,609.5,586.5,610.2z M663.8,652.6c-1.3,0.1-2.4,1.2-2.4,2.6c0,0.4,0.1,0.8,0.2,1.1l-35.3,20.4L588.9,655v-40.8
				c1.3-0.1,2.4-1.2,2.4-2.6c0-0.4-0.1-0.8-0.2-1.1l16.6-9.6l18.7-10.8l37.4,21.6V652.6z M777.3,679.5c1.3-0.1,2.4-1.2,2.4-2.6
				c0-0.4-0.1-0.8-0.2-1.1l35.3-20.4l37.4,21.6l0,40.8c-1.3,0.1-2.4,1.2-2.4,2.6c0,0.4,0.1,0.8,0.3,1.1l-35.3,20.4l-37.4-21.6V679.5
				z M701.9,459.3v-40.8c1.3-0.1,2.4-1.2,2.4-2.6c0-0.4-0.1-0.8-0.2-1.1l35.3-20.4l37.4,21.6v40.8c-1.3,0.1-2.4,1.2-2.4,2.6
				c0,0.4,0.1,0.8,0.3,1.1l-16.6,9.6l-18.7,10.8L701.9,459.3z M666.4,656.3c0.2-0.3,0.2-0.7,0.2-1.1c0-1.4-1-2.5-2.4-2.6v-40.8
				l35.3-20.4c0.5,0.7,1.2,1.1,2.1,1.1c0.9,0,1.7-0.4,2.1-1.1l16.6,9.6l18.7,10.8V655l-37.5,21.6L666.4,656.3z M774.7,675.8
				c-0.2,0.3-0.3,0.7-0.3,1.1c0,1.4,1.1,2.5,2.4,2.6v40.8l-35.3,20.4c-0.5-0.7-1.3-1.1-2.1-1.1c-0.9,0-1.7,0.4-2.1,1.1l-35.3-20.4
				v-43.2l2.1-1.2l35.4-20.4L774.7,675.8z M776.8,587.3c-1.3,0.1-2.4,1.2-2.4,2.6c0,0.4,0.1,0.8,0.3,1.1l-35.3,20.4l-18.7-10.8
				l-16.6-9.6c0.2-0.3,0.2-0.7,0.2-1.1c0-1.4-1.1-2.5-2.4-2.6v-40.8l35.3-20.4c0.5,0.7,1.3,1.1,2.1,1.1c0.9,0,1.7-0.4,2.1-1.1
				l28,16.2l7.3,4.2V587.3z M741.8,525.8c0.2-0.3,0.2-0.7,0.2-1.1c0-1.4-1.1-2.5-2.4-2.6v-40.8l18.7-10.8l16.6-9.6
				c0.5,0.7,1.3,1.1,2.1,1.1c0.9,0,1.7-0.4,2.1-1.1l35.3,20.4v40.8c-1.3,0.1-2.4,1.2-2.4,2.6c0,0.4,0.1,0.8,0.3,1.1l-16.6,9.6
				l-18.7,10.8L741.8,525.8z M852.2,587.3c-1.3,0.1-2.4,1.2-2.4,2.6c0,0.4,0.1,0.8,0.3,1.1l-35.3,20.4L779.4,591
				c0.2-0.3,0.2-0.7,0.2-1.1c0-1.4-1.1-2.5-2.4-2.6v-40.8l18.7-10.8l16.6-9.6c0.5,0.7,1.3,1.1,2.1,1.1c0.9,0,1.7-0.4,2.1-1.1
				l16.6,9.6l18.7,10.8L852.2,587.3z M889.9,524.5l-37.4,21.6l-18.7-10.8l-16.6-9.6c0.2-0.3,0.3-0.7,0.3-1.1c0-1.4-1.1-2.5-2.4-2.6
				v-40.8l37.4-21.6l18.7,10.8l16.6,9.6c-0.2,0.3-0.2,0.7-0.2,1.1c0,1.4,1,2.5,2.4,2.6V524.5z M927.5,459.3l-35.3,20.4
				c-0.5-0.7-1.3-1.1-2.1-1.1c-0.9,0-1.7,0.4-2.1,1.1l-16.6-9.6l-18.7-10.8V416l37.4-21.6l35.3,20.4c-0.2,0.3-0.2,0.7-0.2,1.1
				c0,1.4,1.1,2.5,2.4,2.6V459.3z M1002.9,456.8c-1.3,0.1-2.4,1.2-2.4,2.6c0,0.4,0.1,0.8,0.3,1.1l-35.3,20.4L928,459.3v-40.8
				c1.3-0.1,2.4-1.2,2.4-2.6c0-0.4-0.1-0.8-0.3-1.1l35.3-20.4l24.1,13.9l13.4,7.7V456.8z M1040.6,391.6c-1.3,0.1-2.4,1.2-2.4,2.6
				c0,0.4,0.1,0.8,0.2,1.1l-35.3,20.4l-31.2-18l-6.2-3.6v-40.8c1.3-0.1,2.4-1.2,2.4-2.6c0-0.4-0.1-0.8-0.2-1.1l35.3-20.4l37.4,21.6
				V391.6z M1115.9,394l-37.4,21.6l-35.3-20.4c0.2-0.3,0.2-0.7,0.2-1.1c0-1.4-1-2.5-2.4-2.6v-40.8l35.3-20.4
				c0.5,0.7,1.3,1.1,2.1,1.1c0.9,0,1.7-0.5,2.1-1.1l35.3,20.4V394z"/>
		</g>
	</g>
</g>
</svg>
