<?xml version="1.0" encoding="utf-8"?>
<!-- Generator: Adobe Illustrator 21.0.0, SVG Export Plug-In . SVG Version: 6.00 Build 0)  -->
<svg version="1.1" id="Layer_1" xmlns="http://www.w3.org/2000/svg" xmlns:xlink="http://www.w3.org/1999/xlink" x="0px" y="0px"
	 width="596.6px" height="796.2px" viewBox="0 0 596.6 796.2" style="enable-background:new 0 0 596.6 796.2;" xml:space="preserve"
	>
<style type="text/css">
	.st0{fill:#ECEDEB;}
	.st1{fill:#E0E0E1;}
	.st2{fill:#D3D4D3;}
	.st3{fill:#C8C9C9;}
	.st4{fill:#BDBFBF;}
	.st5{fill:#FFFFFF;}
	.st6{fill:#ED1C24;}
	.st7{fill:#50B848;}
	.st8{fill:#00683F;}
	.st9{fill:#CA2820;}
	.st10{fill:#830709;}
	.st11{fill:#FBF9F9;}
</style>
<g>
	<path class="st0" d="M0,752.1V30.6C0,13.7,13.8,0,30.7,0h535.2c16.9,0,30.7,13.8,30.7,30.6v700.7l-4.8,3.4
		c-42.3,30.1-88.3,51-139.9,58.4c-43.6,6.3-86.5,2.3-129.4-6.6c-6.6-1.4-13.1-2.8-19.6-4.4c-33.9-8-67.3-18.2-101-27.1
		c-32-8.4-64.7-15.6-97.8-17.6c-30.4-1.8-60,1-89.1,10L0,752.1L0,752.1z"/>
	<path class="st1" d="M2.3,749V30.6C2.3,15,15.1,2.3,30.7,2.3h535.2c15.6,0,28.4,12.7,28.4,28.3v699.5l-3.9,2.7
		c-42,29.9-87.7,50.6-138.9,58c-43.4,6.2-86,2.3-128.6-6.5c-6.5-1.3-13-2.8-19.5-4.3c-33.9-8-67.2-18.2-100.9-27.1
		c-32.2-8.4-65-15.7-98.3-17.7c-30.7-1.8-60.5,1-89.9,10.1L2.3,749L2.3,749z"/>
	<path class="st2" d="M4.6,745.9V30.6c0-14.3,11.8-26,26.1-26h535.2c14.3,0,26.1,11.7,26.1,26v698.3l-2.9,2.1
		c-41.7,29.7-87,50.3-137.9,57.6c-43.1,6.2-85.4,2.2-127.8-6.5c-6.5-1.3-13-2.8-19.5-4.3c-33.9-8-67.2-18.2-100.9-27
		c-32.3-8.5-65.3-15.8-98.7-17.7c-30.9-1.8-61.1,1-90.7,10.2L4.6,745.9L4.6,745.9z"/>
	<path class="st3" d="M6.9,742.8V30.6c0-13.1,10.7-23.7,23.8-23.7h535.2c13.1,0,23.8,10.7,23.8,23.7v697.1l-1.9,1.4
		c-41.4,29.5-86.4,49.9-136.9,57.2c-42.8,6.2-84.9,2.2-127.1-6.5c-6.5-1.3-13-2.8-19.4-4.3c-33.9-8-67.2-18.2-100.8-27
		c-32.5-8.5-65.6-15.8-99.2-17.8c-31.2-1.9-61.6,1-91.5,10.3L6.9,742.8L6.9,742.8z"/>
	<path class="st4" d="M9.2,739.6v-709c0-11.8,9.7-21.5,21.5-21.5h535.2c11.8,0,21.5,9.7,21.5,21.5v695.9l-1,0.7
		c-41.1,29.2-85.8,49.6-135.9,56.8c-42.6,6.1-84.4,2.2-126.3-6.5c-6.5-1.3-12.9-2.8-19.3-4.3c-33.9-8-67.1-18.2-100.8-27
		c-32.6-8.6-65.9-15.9-99.6-17.9c-31.5-1.9-62.2,1.1-92.4,10.4L9.2,739.6L9.2,739.6z"/>
	<path class="st5" d="M11.5,736.5v-706c0-10.5,8.7-19.2,19.2-19.2h535.2c10.5,0,19.2,8.6,19.2,19.2v694.7
		C368.7,879.4,200.6,677.7,11.5,736.5L11.5,736.5z"/>
	<path class="st6" d="M11.5,362.9h573.6V713c-212.7,102-438.6-78.6-573.6,11.2V362.9L11.5,362.9z"/>
	<path class="st6" d="M11.5,736.5c135.1-89.8,360.9,89.8,573.6-11.2C378.6,877.3,192,680.3,11.5,736.5L11.5,736.5z"/>
	<path class="st7" d="M451.4,177c24.9-7.4,45.1-19.4,61.6-35.2l25.3,28.4c-218.9,100-356.7-71.5-479.8,31.6
		C206.4-6.9,488.5-28,451.4,177L451.4,177z"/>
	<path class="st8" d="M79.4,209.1c116.8-76.5,207.3,39.6,378.8,7.4c12.3,79.7-50.5,122.9-123.1,111.5
		C266.3,317.1,182.2,240.7,79.4,209.1L79.4,209.1z"/>
	<path class="st9" d="M500.5,521.9V410.7c10.1,0,24.4,4,24.4,13.1V535C515.6,535,500.5,532.2,500.5,521.9L500.5,521.9z M192.3,529.9
		c6.2,0,11.2,5,11.2,11.2s-5,11.2-11.2,11.2s-11.2-5-11.2-11.2C181,534.9,186,529.9,192.3,529.9L192.3,529.9z M219.1,529.9
		c6.2,0,11.2,5,11.2,11.2s-5,11.2-11.2,11.2s-11.2-5-11.2-11.2C207.8,534.9,212.9,529.9,219.1,529.9L219.1,529.9z M263.3,427.3
		c6.2,0,11.2,5,11.2,11.2s-5,11.2-11.2,11.2s-11.2-5-11.2-11.2C252,432.3,257.1,427.3,263.3,427.3L263.3,427.3z M290.1,427.3
		c6.2,0,11.2,5,11.2,11.2s-5,11.2-11.2,11.2s-11.2-5-11.2-11.2C278.9,432.3,283.9,427.3,290.1,427.3L290.1,427.3z M276.7,404.2
		c6.2,0,11.2,5,11.2,11.2s-5,11.2-11.2,11.2s-11.2-5-11.2-11.2S270.5,404.2,276.7,404.2L276.7,404.2z M106.8,521.8l-0.4,18.9
		c0,9.8-27,18.2-34.7,3.2v-8.7c5.4,0,12,1.7,12-5.1v-61.7c0-32.7,52.1-16.2,71.2-27.2v58.6h68.8v-43.6c0-11.5,12.9-15,24.4-15v58.6
		h29.2l0.2,26.9c0,11.5,26.1,11.6,26.1,0.3v-70.6c0-8.3,13.9-15.4,24.4-15.4l-0.1,58.8h33.6l0.1-35.9c0-23.7,56.7-37.8,63.2,3.4
		c-8.5-8.5-36.8-17.4-36.8-0.8v33.3h37l0.2,26.9c0,11.5,26.1,11.6,26.1,0.3V424.3c0-7.3,13.9-13.7,24.4-13.7l-0.2,111.1
		c0,48.5-72.5,48.9-72.5,0h-75.3c0,48.5-72.5,48.9-72.5,0H106.8V521.8z M105.8,499.8H133v-21.2c-5.5-16-23-14.3-27.2-0.1V499.8
		L105.8,499.8z"/>
	<path class="st10" d="M500.5,519.5V408.4c10.1,0,24.4,4,24.4,13.1v111.2C515.6,532.7,500.5,529.8,500.5,519.5L500.5,519.5z
		 M192.3,527.5c6.2,0,11.2,5,11.2,11.2s-5,11.2-11.2,11.2s-11.2-5-11.2-11.2C181,532.6,186,527.5,192.3,527.5L192.3,527.5z
		 M219.1,527.5c6.2,0,11.2,5,11.2,11.2s-5,11.2-11.2,11.2s-11.2-5-11.2-11.2C207.8,532.6,212.9,527.5,219.1,527.5L219.1,527.5z
		 M263.3,424.9c6.2,0,11.2,5,11.2,11.2s-5,11.2-11.2,11.2s-11.2-5-11.2-11.2C252,430,257.1,424.9,263.3,424.9L263.3,424.9z
		 M290.1,424.9c6.2,0,11.2,5,11.2,11.2s-5,11.2-11.2,11.2s-11.2-5-11.2-11.2C278.9,430,283.9,424.9,290.1,424.9L290.1,424.9z
		 M276.7,401.8c6.2,0,11.2,5,11.2,11.2c0,6.2-5,11.2-11.2,11.2s-11.2-5-11.2-11.2C265.5,406.9,270.5,401.8,276.7,401.8L276.7,401.8z
		 M106.8,519.4l-0.4,18.9c0,9.8-27,18.2-34.7,3.2v-8.7c5.4,0,12,1.7,12-5.1v-61.6c0-32.7,52.1-16.2,71.2-27.2v58.5h68.8v-43.6
		c0-11.5,12.9-15,24.4-15v58.6h29.2l0.2,26.9c0,11.5,26.1,11.6,26.1,0.3V454c0-8.3,13.9-15.4,24.4-15.4l-0.1,58.8h33.6l0.1-35.9
		c0-23.7,56.7-37.8,63.2,3.4c-8.5-8.5-36.8-17.4-36.8-0.8v33.3h37l0.2,26.9c0,11.5,26.1,11.6,26.1,0.3V422
		c0-7.3,13.9-13.7,24.4-13.7l-0.4,111.1c0,48.5-72.5,48.9-72.5,0h-75.1c0,48.5-72.5,48.9-72.5,0H106.8L106.8,519.4z M105.8,497.4
		H133v-21.2c-5.5-16-23-14.3-27.2-0.1V497.4L105.8,497.4z"/>
	<path class="st11" d="M500.5,516.4V405.2c10.1,0,24.4,4,24.4,13.1v111.2C515.6,529.5,500.5,526.7,500.5,516.4L500.5,516.4z
		 M192.3,524.4c6.2,0,11.2,5,11.2,11.2s-5,11.2-11.2,11.2s-11.2-5-11.2-11.2C181,529.4,186,524.4,192.3,524.4L192.3,524.4z
		 M219.1,524.4c6.2,0,11.2,5,11.2,11.2s-5,11.2-11.2,11.2s-11.2-5-11.2-11.2C207.8,529.4,212.9,524.4,219.1,524.4L219.1,524.4z
		 M263.3,421.8c6.2,0,11.2,5,11.2,11.2s-5,11.2-11.2,11.2s-11.2-5-11.2-11.2C252,426.8,257.1,421.8,263.3,421.8L263.3,421.8z
		 M290.1,421.8c6.2,0,11.2,5,11.2,11.2s-5,11.2-11.2,11.2s-11.2-5-11.2-11.2C278.9,426.8,283.9,421.8,290.1,421.8L290.1,421.8z
		 M276.7,398.7c6.2,0,11.2,5,11.2,11.2s-5,11.2-11.2,11.2s-11.2-5-11.2-11.2S270.5,398.7,276.7,398.7L276.7,398.7z M106.8,516.2
		l-0.4,18.9c0,9.8-27,18.2-34.7,3.2v-8.7c5.4,0,12,1.7,12-5.1v-61.6c0-32.7,52.1-16.2,71.2-27.2v58.6h68.8v-43.6
		c0-11.5,12.9-15,24.4-15v58.6h29.2l0.2,26.9c0,11.5,26.1,11.6,26.1,0.3v-70.6c0-8.3,13.9-15.4,24.4-15.4l-0.1,58.8h33.6l0.1-35.9
		c0-23.7,56.7-37.8,63.2,3.4c-8.5-8.5-36.8-17.4-36.8-0.8v33.3h37l0.2,26.9c0,11.5,26.1,11.6,26.1,0.3V418.8
		c0-7.3,13.9-13.7,24.4-13.7l-0.2,111.1c0,48.5-72.5,48.9-72.5,0h-75.3c0,48.5-72.5,48.9-72.5,0H106.8L106.8,516.2z M105.8,494.3
		H133v-21.2c-5.5-16-23-14.3-27.2-0.1V494.3L105.8,494.3z"/>
	<path class="st9" d="M421.2,630.5c0-34,53.7-29.5,53.7-13.2c0-17.9,50.7-22.7,50.7,7.2v49.1c-15,0-18.8-3-18.8-7.9v-36.5
		c0-14.8-24-14.8-24-0.4v44.8c-14.7,0-18.8-3.4-18.8-7.7l-0.1-37.4c0-9.2-24-9.2-24-0.1l-0.1,45.1c-14.7,0-18.8-3.6-18.8-7.7v-35.3
		H421.2z M386.8,582.1c4.7,0,8.4,3.8,8.4,8.4c0,4.7-3.8,8.4-8.4,8.4c-4.7,0-8.4-3.8-8.4-8.4C378.3,585.9,382.1,582.1,386.8,582.1
		L386.8,582.1z M395.4,657.8c1.3,4.9,8,2.5,11,1.4l1.4,13.4c-3.9,1.7-8.3,2.6-13.2,2.6c-8.7,0-15.4-3.4-15.8-12.3l-0.5-54.7
		c6.6,0,16.7,0,16.7,6.5L395.4,657.8L395.4,657.8z M89,628.6c0,10.2,2.3,17.9,6.8,23.2c4.6,5.3,10.3,7.9,17.4,7.9
		c7,0,12.8-2.6,17.3-7.8s6.7-13,6.7-23.5c0-10.3-2.2-18-6.5-23.1c-4.4-5.1-10.2-7.6-17.4-7.6c-7.3,0-13.1,2.6-17.5,7.7
		C91.3,610.5,89,618.2,89,628.6L89,628.6z M70.9,629.2c0-9.2,1.3-16.9,4-23.1c2-4.6,4.7-8.7,8.1-12.3s7.2-6.3,11.3-8.1
		c5.4-2.4,11.7-3.6,18.8-3.6c12.8,0,23.1,4.1,30.8,12.3c7.7,8.2,11.6,19.7,11.6,34.3c0,14.5-3.8,25.9-11.5,34.1
		c-7.6,8.2-17.9,12.3-30.6,12.3c-13,0-23.3-4.1-30.9-12.2C74.7,654.7,70.9,643.5,70.9,629.2L70.9,629.2z M214.3,608.4
		c0,10.7-4.3,13.7-11.8,13.7h-13.8l0.3,35.6h25.8c0,6.2-2.4,17.3-12.2,17.3h-14.3c-8.7,0-15.4-3.4-15.8-12.3l-0.5-67.3
		c0-8.3,10.2-10.1,16.7-10.1v23L214.3,608.4L214.3,608.4z M244.4,590.3v26.4c5.7-6.5,12.4-9.8,20.3-9.8c10.7,0,19.4,5.2,21.6,15.5
		c0.6,2.8,0.9,7.1,0.9,12.9v38.2c-6.7,0-17.6-0.5-17.6-7.5v-27c0-4.9-0.2-8.5-0.5-10.9c-1.7-11.5-19.2-10.5-23.2,0.2
		c-1.1,2.8-1.6,7-1.6,12.4v32.7c-6.7,0-17.6-1.3-17.6-7.9v-82.1C233.1,583.6,244.4,583.6,244.4,590.3L244.4,590.3z M344.9,642.3
		c-2.2,0.7-5.7,1.6-10.5,2.6c-5.2,1.1-12.7,2.5-12.7,9.1c0,14,23.2,9.1,23.2-1V642.3L344.9,642.3z M321.9,628.3l-15.6-2.8
		c1.8-6.3,4.8-11,9.1-14s10.7-4.5,19.1-4.5c7.7,0,13.4,0.9,17.2,2.7c3.7,1.8,6.4,4.1,7.9,6.9c1.5,2.8,2.3,7.9,2.3,15.4l-0.2,20.1
		c0,22-38.5,29.5-51.3,17.4c-3.9-3.6-5.8-8.3-5.8-13.8c0-3.7,0.9-7,2.6-9.8c1.8-2.9,4.2-5.1,7.4-6.6s7.7-2.9,13.7-4
		c8-1.5,13.6-2.9,16.7-4.2v-1.7c0-3.3-0.8-5.7-2.4-7.1c-1.6-1.4-4.7-2.1-9.2-2.1c-3.1,0-5.5,0.6-7.2,1.8
		C324.4,623.2,323,625.3,321.9,628.3L321.9,628.3z"/>
	<path class="st10" d="M421.2,627.8c0-34,53.7-29.5,53.7-13.2c0-17.9,50.7-22.7,50.7,7.2v49.1c-15,0-18.8-3-18.8-7.9v-36.5
		c0-14.8-24-14.8-24-0.4v44.8c-14.7,0-18.8-3.4-18.8-7.7l-0.1-37.4c0-9.2-24-9.2-24-0.1l-0.1,45.1c-14.7,0-18.8-3.6-18.8-7.7v-35.3
		H421.2z M386.8,579.3c4.7,0,8.4,3.8,8.4,8.4s-3.8,8.4-8.4,8.4c-4.7,0-8.4-3.8-8.4-8.4S382.1,579.3,386.8,579.3L386.8,579.3z
		 M395.4,655c1.3,5,8,2.5,11,1.4l1.4,13.4c-3.9,1.7-8.3,2.6-13.2,2.6c-8.7,0-15.4-3.4-15.8-12.3l-0.5-54.7c6.6,0,16.7,0,16.7,6.5
		L395.4,655L395.4,655z M89,625.8c0,10.2,2.3,17.9,6.8,23.2c4.6,5.3,10.3,7.9,17.4,7.9c7,0,12.8-2.6,17.3-7.8s6.7-13,6.7-23.5
		c0-10.3-2.2-18-6.5-23.1c-4.4-5.1-10.2-7.6-17.4-7.6c-7.3,0-13.1,2.6-17.5,7.7C91.3,607.7,89,615.4,89,625.8L89,625.8z M70.9,626.4
		c0-9.2,1.3-16.9,4-23.1c2-4.6,4.7-8.7,8.1-12.3s7.2-6.3,11.3-8.1c5.4-2.4,11.7-3.6,18.8-3.6c12.8,0,23.1,4.1,30.8,12.3
		c7.7,8.2,11.6,19.7,11.6,34.3c0,14.5-3.8,25.9-11.5,34.1c-7.6,8.2-17.9,12.3-30.6,12.3c-13,0-23.3-4.1-30.9-12.2
		C74.7,652,70.9,640.7,70.9,626.4L70.9,626.4z M214.3,605.7c0,10.7-4.3,13.7-11.8,13.7h-13.8L189,655h25.8c0,6.2-2.4,17.3-12.2,17.3
		h-14.3c-8.7,0-15.4-3.4-15.8-12.3l-0.5-67.3c0-8.3,10.2-10.1,16.7-10.1v23L214.3,605.7L214.3,605.7z M244.4,587.6V614
		c5.7-6.5,12.4-9.8,20.3-9.8c10.7,0,19.4,5.2,21.6,15.5c0.6,2.8,0.9,7.1,0.9,12.9v38.2c-6.7,0-17.6-0.5-17.6-7.5v-27
		c0-4.9-0.2-8.5-0.5-10.9c-1.7-11.5-19.2-10.5-23.2,0.2c-1.1,2.8-1.6,7-1.6,12.4v32.7c-6.7,0-17.6-1.3-17.6-7.9v-82.1
		C233.1,580.9,244.4,580.8,244.4,587.6L244.4,587.6z M344.9,639.6c-2.2,0.7-5.7,1.6-10.5,2.6c-5.2,1.1-12.7,2.5-12.7,9.1
		c0,14,23.2,9.1,23.2-1V639.6L344.9,639.6z M321.9,625.6l-15.6-2.8c1.8-6.3,4.8-11,9.1-14s10.7-4.5,19.1-4.5
		c7.7,0,13.4,0.9,17.2,2.7c3.7,1.8,6.4,4.1,7.9,6.9c1.5,2.8,2.3,7.9,2.3,15.4l-0.2,20.1c0,22-38.5,29.5-51.3,17.4
		c-3.9-3.6-5.8-8.3-5.8-13.8c0-3.7,0.9-7,2.6-9.8c1.8-2.9,4.2-5.1,7.4-6.6s7.7-2.9,13.7-4c8-1.5,13.6-2.9,16.7-4.2v-1.7
		c0-3.3-0.8-5.7-2.4-7.1c-1.6-1.4-4.7-2.1-9.2-2.1c-3.1,0-5.5,0.6-7.2,1.8C324.4,620.4,323,622.5,321.9,625.6L321.9,625.6z"/>
	<path class="st11" d="M421.2,625c0-34,53.7-29.5,53.7-13.2c0-17.9,50.7-22.7,50.7,7.2v49.1c-15,0-18.8-3-18.8-7.9v-36.5
		c0-14.8-24-14.8-24-0.4v44.8c-14.7,0-18.8-3.4-18.8-7.7l-0.1-37.4c0-9.2-24-9.2-24-0.1l-0.1,45.1c-14.7,0-18.8-3.6-18.8-7.7V625
		H421.2z M386.8,576.6c4.7,0,8.4,3.8,8.4,8.4c0,4.7-3.8,8.4-8.4,8.4c-4.7,0-8.4-3.8-8.4-8.4C378.3,580.3,382.1,576.6,386.8,576.6
		L386.8,576.6z M395.4,652.2c1.3,4.9,8,2.5,11,1.4l1.4,13.4c-3.9,1.7-8.3,2.6-13.2,2.6c-8.7,0-15.4-3.4-15.8-12.3l-0.5-54.7
		c6.6,0,16.7,0,16.7,6.5L395.4,652.2L395.4,652.2z M89,623.1c0,10.2,2.3,17.9,6.8,23.2c4.6,5.3,10.3,7.9,17.4,7.9
		c7,0,12.8-2.6,17.3-7.8s6.7-13,6.7-23.5c0-10.3-2.2-18-6.5-23.1c-4.4-5.1-10.2-7.6-17.4-7.6c-7.3,0-13.1,2.6-17.5,7.7
		C91.3,604.9,89,612.7,89,623.1L89,623.1z M70.9,623.7c0-9.2,1.3-16.9,4-23.1c2-4.6,4.7-8.7,8.1-12.3s7.2-6.3,11.3-8.1
		c5.4-2.4,11.7-3.6,18.8-3.6c12.8,0,23.1,4.1,30.8,12.3c7.7,8.2,11.6,19.7,11.6,34.3c0,14.5-3.8,25.9-11.5,34.1
		c-7.6,8.2-17.9,12.3-30.6,12.3c-13,0-23.3-4.1-30.9-12.2C74.7,649.2,70.9,638,70.9,623.7L70.9,623.7z M214.3,602.9
		c0,10.7-4.3,13.7-11.8,13.7h-13.8l0.3,35.6h25.8c0,6.2-2.4,17.3-12.2,17.3h-14.3c-8.7,0-15.4-3.4-15.8-12.3l-0.5-67.3
		c0-8.3,10.2-10.1,16.7-10.1v23L214.3,602.9L214.3,602.9z M244.4,584.8v26.4c5.7-6.5,12.4-9.8,20.3-9.8c10.7,0,19.4,5.2,21.6,15.5
		c0.6,2.8,0.9,7.1,0.9,12.9V668c-6.7,0-17.6-0.5-17.6-7.5v-27c0-4.9-0.2-8.5-0.5-10.9c-1.7-11.5-19.2-10.5-23.2,0.2
		c-1.1,2.8-1.6,7-1.6,12.4v32.7c-6.7,0-17.6-1.3-17.6-7.9v-82.1C233.1,578.1,244.4,578,244.4,584.8L244.4,584.8z M344.9,636.8
		c-2.2,0.7-5.7,1.6-10.5,2.6c-5.2,1.1-12.7,2.5-12.7,9.1c0,14,23.2,9.1,23.2-1V636.8L344.9,636.8z M321.9,622.8l-15.6-2.8
		c1.8-6.3,4.8-11,9.1-14s10.7-4.5,19.1-4.5c7.7,0,13.4,0.9,17.2,2.7c3.7,1.8,6.4,4.1,7.9,6.9c1.5,2.8,2.3,7.9,2.3,15.4l-0.2,20.1
		c0,22-38.5,29.5-51.3,17.4c-3.9-3.6-5.8-8.3-5.8-13.8c0-3.7,0.9-7,2.6-9.8c1.8-2.9,4.2-5.1,7.4-6.6s7.7-2.9,13.7-4
		c8-1.5,13.6-2.9,16.7-4.2v-1.7c0-3.3-0.8-5.7-2.4-7.1c-1.6-1.4-4.7-2.1-9.2-2.1c-3.1,0-5.5,0.6-7.2,1.8
		C324.4,617.6,323,619.8,321.9,622.8L321.9,622.8z"/>
</g>
</svg>
