<?xml version="1.0" encoding="UTF-8"?>
<svg xmlns="http://www.w3.org/2000/svg" xmlns:xlink="http://www.w3.org/1999/xlink" width="511.29pt" height="269.79pt" viewBox="0 0 511.29 269.79" version="1.1">
<defs>
<clipPath id="clip1">
  <path d="M 38 237 L 60 237 L 60 269.789063 L 38 269.789063 Z M 38 237 "/>
</clipPath>
<clipPath id="clip2">
  <path d="M 86 237 L 112 237 L 112 269.789063 L 86 269.789063 Z M 86 237 "/>
</clipPath>
<clipPath id="clip3">
  <path d="M 372 237 L 399 237 L 399 269.789063 L 372 269.789063 Z M 372 237 "/>
</clipPath>
<clipPath id="clip4">
  <path d="M 143 226 L 169 226 L 169 269.789063 L 143 269.789063 Z M 143 226 "/>
</clipPath>
<clipPath id="clip5">
  <path d="M 197 236 L 231 236 L 231 269.789063 L 197 269.789063 Z M 197 236 "/>
</clipPath>
<clipPath id="clip6">
  <path d="M 471 237 L 499 237 L 499 269.789063 L 471 269.789063 Z M 471 237 "/>
</clipPath>
<clipPath id="clip7">
  <path d="M 500 237 L 511.289063 237 L 511.289063 269.789063 L 500 269.789063 Z M 500 237 "/>
</clipPath>
<clipPath id="clip8">
  <path d="M 399 237 L 423 237 L 423 269.789063 L 399 269.789063 Z M 399 237 "/>
</clipPath>
<clipPath id="clip9">
  <path d="M 62 237 L 85 237 L 85 269.789063 L 62 269.789063 Z M 62 237 "/>
</clipPath>
<clipPath id="clip10">
  <path d="M 261 237 L 283 237 L 283 269.789063 L 261 269.789063 Z M 261 237 "/>
</clipPath>
<clipPath id="clip11">
  <path d="M 167 237 L 195 237 L 195 269.789063 L 167 269.789063 Z M 167 237 "/>
</clipPath>
<clipPath id="clip12">
  <path d="M 233 237 L 260 237 L 260 269.789063 L 233 269.789063 Z M 233 237 "/>
</clipPath>
<clipPath id="clip13">
  <path d="M 424 237 L 451 237 L 451 269.789063 L 424 269.789063 Z M 424 237 "/>
</clipPath>
<clipPath id="clip14">
  <path d="M 287 242 L 310 242 L 310 269.789063 L 287 269.789063 Z M 287 242 "/>
</clipPath>
<clipPath id="clip15">
  <path d="M 116 237 L 136 237 L 136 269.789063 L 116 269.789063 Z M 116 237 "/>
</clipPath>
<clipPath id="clip16">
  <path d="M 311 242 L 328 242 L 328 269.789063 L 311 269.789063 Z M 311 242 "/>
</clipPath>
<clipPath id="clip17">
  <path d="M 0 226 L 37 226 L 37 269.789063 L 0 269.789063 Z M 0 226 "/>
</clipPath>
<clipPath id="clip18">
  <path d="M 332 226 L 377 226 L 377 269.789063 L 332 269.789063 Z M 332 226 "/>
</clipPath>
</defs>
<g id="surface1">
<g clip-path="url(#clip1)" clip-rule="nonzero">
<path style=" stroke:none;fill-rule:nonzero;fill:rgb(16.899109%,17.599487%,43.499756%);fill-opacity:1;" d="M 52.792969 266 C 51.335938 266.875 49.585938 267.457031 47.835938 267.164063 L 44.917969 267.164063 L 44.917969 254.625 L 47.25 254.625 C 49.292969 254.625 51.335938 254.914063 53.085938 256.082031 C 54.542969 257.25 55.125 259 54.835938 260.75 C 55.125 262.789063 54.542969 264.832031 52.792969 266 M 45.210938 239.164063 L 46.375 239.164063 C 49.875 238.875 53.085938 241.789063 53.375 245.289063 L 53.375 246.164063 C 53.667969 248.207031 52.5 250.25 50.75 251.414063 C 49.292969 252.289063 47.835938 252.582031 46.085938 252.582031 L 44.917969 252.582031 Z M 59.5 260.75 C 59.5 258.707031 58.917969 256.664063 57.460938 254.914063 C 56.585938 254.039063 55.417969 253.164063 54.25 252.875 C 54.835938 252.289063 55.417969 251.707031 55.710938 251.125 C 56.585938 249.664063 57.167969 247.914063 57.167969 246.457031 C 57.460938 243.832031 56.292969 241.5 54.542969 239.75 C 52.210938 238 49.292969 237.414063 46.375 237.414063 L 38.5 237.414063 L 38.5 238.875 L 40.835938 238.875 C 40.835938 238.875 41.125 239.164063 41.125 239.457031 L 41.125 266.289063 C 41.125 266.875 41.125 267.164063 40.835938 267.75 C 39.960938 268.039063 39.375 268.039063 38.5 268.039063 L 38.5 269.5 L 49.875 269.5 C 52.5 269.789063 54.835938 268.914063 57.167969 267.457031 C 58.917969 265.707031 59.792969 263.375 59.5 260.75 "/>
</g>
<g clip-path="url(#clip2)" clip-rule="nonzero">
<path style=" stroke:none;fill-rule:nonzero;fill:rgb(16.899109%,17.599487%,43.499756%);fill-opacity:1;" d="M 105 266 C 105.292969 266.875 105.582031 267.457031 105.875 268.039063 C 106.457031 268.914063 107.332031 269.207031 108.207031 269.5 L 112 269.5 L 112 268.039063 L 110.542969 268.039063 C 109.082031 267.457031 108.5 265.414063 108.5 262.207031 L 108.5 239.164063 C 109.082031 239.164063 109.957031 238.875 110.542969 238.875 L 111.417969 238.875 L 111.417969 237.414063 L 101.207031 237.414063 L 101.207031 238.875 L 102.082031 238.875 C 102.957031 238.875 103.832031 238.875 104.417969 239.164063 C 104.707031 240.039063 104.707031 241.207031 104.707031 242.082031 L 104.707031 261.039063 C 104.707031 261.625 104.707031 261.914063 104.417969 262.5 C 103.832031 265.125 101.792969 266.875 99.167969 267.164063 C 97.125 267.164063 95.375 266 94.5 263.957031 C 93.625 261.914063 93.332031 259.582031 93.332031 257.25 L 93.332031 240.625 C 93.332031 240.039063 93.332031 239.75 93.625 239.164063 C 94.5 238.875 95.375 238.875 96.25 238.875 L 96.832031 238.875 L 96.832031 237.414063 L 86.332031 237.414063 L 86.332031 238.875 L 86.917969 238.875 C 87.792969 238.875 88.375 238.875 89.25 239.164063 C 89.542969 239.75 89.542969 240.332031 89.542969 240.914063 L 89.542969 258.125 C 89.25 261.625 90.417969 264.832031 92.75 267.457031 C 94.5 268.914063 96.542969 269.5 98.875 269.5 C 100.625 269.5 102.082031 268.914063 103.542969 268.039063 C 103.832031 267.164063 104.417969 266.582031 105 266 "/>
</g>
<g clip-path="url(#clip3)" clip-rule="nonzero">
<path style=" stroke:none;fill-rule:nonzero;fill:rgb(16.899109%,17.599487%,43.499756%);fill-opacity:1;" d="M 391.125 266 C 391.417969 266.875 391.710938 267.75 392 268.332031 C 392.585938 268.914063 393.460938 269.5 394.335938 269.5 L 397.835938 269.5 L 397.835938 268.039063 L 396.667969 268.039063 C 395.210938 267.457031 394.625 265.414063 394.625 262.207031 L 394.625 240.332031 C 394.625 240.039063 394.625 239.457031 394.917969 239.164063 C 395.792969 239.164063 396.375 238.875 397.25 238.875 L 398.125 238.875 L 398.125 237.414063 L 387.917969 237.414063 L 387.917969 238.875 L 388.210938 238.875 C 389.085938 238.875 389.667969 238.875 390.542969 239.164063 C 390.835938 240.039063 390.835938 241.207031 390.835938 242.082031 L 390.835938 261.039063 C 390.835938 261.625 390.835938 261.914063 390.542969 262.5 C 389.960938 265.125 387.917969 267.164063 385.292969 267.164063 C 383.25 267.164063 381.5 266 380.625 263.957031 C 379.75 261.914063 379.460938 259.582031 379.460938 257.25 L 379.460938 240.625 C 379.460938 240.039063 379.460938 239.75 379.75 239.164063 C 380.625 238.875 381.5 238.875 382.085938 238.875 L 382.667969 238.875 L 382.667969 237.125 L 372.75 237.125 L 372.75 238.582031 L 373.335938 238.582031 C 374.210938 238.582031 374.792969 238.582031 375.667969 238.875 C 375.960938 239.457031 375.960938 240.039063 375.960938 240.625 L 375.960938 257.832031 C 375.667969 261.332031 376.835938 264.539063 379.167969 267.164063 C 380.917969 268.625 382.960938 269.207031 385.292969 269.207031 C 387.042969 269.207031 388.5 268.625 389.960938 267.75 C 389.960938 267.164063 390.542969 266.582031 391.125 266 "/>
</g>
<path style=" stroke:none;fill-rule:nonzero;fill:rgb(16.899109%,17.599487%,43.499756%);fill-opacity:1;" d="M 469 260.75 C 469 258.707031 468.417969 256.664063 467.25 255.207031 C 465.5 253.164063 463.167969 251.707031 460.835938 250.832031 C 457.625 249.375 454.417969 247.625 454.417969 244.414063 C 454.125 241.789063 456.167969 239.164063 458.792969 239.164063 L 459.667969 239.164063 C 462.292969 239.164063 464.335938 240.914063 464.335938 243.539063 L 464.335938 244.414063 L 465.5 244.414063 L 465.5 237.707031 L 464.625 237.707031 C 464.042969 237.707031 463.167969 237.707031 462.585938 237.414063 C 461.417969 237.125 460.542969 237.125 459.375 237.125 C 457.042969 237.125 454.710938 238 452.960938 239.457031 C 451.210938 241.207031 450.335938 243.25 450.625 245.582031 C 450.625 247.332031 451.210938 249.082031 452.375 250.539063 C 453.835938 252.289063 455.875 253.75 458.210938 254.332031 C 459.960938 254.914063 461.710938 256.082031 463.167969 257.25 C 464.042969 258.125 464.625 259.582031 464.625 261.039063 C 464.917969 263.957031 462.585938 266.582031 459.667969 266.875 L 459.085938 266.875 C 457.335938 267.164063 455.875 266.582031 454.417969 265.707031 C 453.835938 264.832031 453.542969 263.375 453.542969 262.207031 L 453.542969 261.625 L 452.085938 261.625 L 452.085938 268.914063 L 459.375 268.914063 C 461.710938 268.914063 464.042969 268.039063 466.085938 266.582031 C 468.417969 265.414063 469.292969 263.082031 469 260.75 "/>
<g clip-path="url(#clip4)" clip-rule="nonzero">
<path style=" stroke:none;fill-rule:nonzero;fill:rgb(16.899109%,17.599487%,43.499756%);fill-opacity:1;" d="M 167.710938 262.5 C 168.289063 261.039063 168.585938 259.582031 168.585938 258.414063 C 168.585938 255.5 167.710938 252.582031 165.664063 250.539063 C 163.335938 248.207031 160.414063 246.457031 157.5 245 L 157.210938 245 C 154.875 244.125 152.835938 242.664063 150.789063 241.5 C 149.039063 240.332031 147.875 238.289063 147.875 236.25 C 147.875 232.164063 151.375 228.957031 155.460938 228.957031 L 156.039063 228.957031 C 157.5 228.957031 158.664063 229.25 159.835938 229.832031 C 161 230.414063 161.875 231.289063 162.460938 232.457031 C 163.039063 233.914063 163.335938 235.664063 163.335938 237.414063 L 164.5 237.414063 L 164.5 228.082031 L 161.875 228.082031 L 159.539063 227.5 C 158.085938 227.207031 156.914063 226.914063 155.460938 226.914063 C 148.460938 226.914063 143.5 231.289063 143.5 237.414063 C 143.5 240.039063 144.375 242.664063 146.414063 244.707031 C 148.460938 246.75 150.789063 248.207031 153.414063 249.375 C 156.039063 250.539063 158.664063 252 161 254.039063 C 162.460938 255.5 163.335938 257.539063 163.335938 259.582031 C 163.335938 263.957031 159.835938 267.164063 155.75 267.457031 L 154.875 267.457031 C 152.835938 267.457031 150.789063 267.164063 149.039063 266 C 147.585938 265.125 147 263.664063 146.710938 261.914063 L 146.710938 261.332031 L 145.25 261.332031 L 145.25 269.5 L 155.460938 269.5 C 158.960938 269.789063 162.164063 268.625 164.789063 266.289063 C 166.25 265.125 167.125 263.957031 167.710938 262.5 "/>
</g>
<g clip-path="url(#clip5)" clip-rule="nonzero">
<path style=" stroke:none;fill-rule:nonzero;fill:rgb(16.899109%,17.599487%,43.499756%);fill-opacity:1;" d="M 221.960938 245.875 L 224.289063 266 L 224.289063 267.164063 C 223.710938 267.75 223.125 268.039063 222.539063 267.75 L 221.960938 267.75 L 221.960938 269.207031 L 231 269.207031 L 231 267.75 C 230.125 267.75 229.539063 267.75 228.664063 267.457031 C 228.375 266.875 228.375 266.289063 228.375 265.414063 L 225.75 242.082031 L 225.75 240.332031 C 225.75 240.039063 225.75 239.457031 226.039063 239.164063 C 226.625 238.875 227.210938 238.582031 227.789063 238.582031 L 228.375 238.582031 L 228.375 236.832031 L 222.835938 236.832031 L 214.375 261.039063 L 205.914063 236.832031 L 200.375 236.832031 L 200.375 238.289063 L 200.960938 238.289063 C 201.539063 238.289063 202.125 238.289063 203 238.582031 C 203.289063 239.164063 203.289063 240.039063 203 240.625 L 200.085938 265.707031 C 200.085938 266 200.085938 266.582031 199.789063 266.875 C 199.789063 267.164063 199.789063 267.164063 199.5 267.457031 L 197.460938 267.457031 L 197.460938 269.207031 L 204.164063 269.207031 L 204.164063 267.75 L 203.585938 267.75 C 203 267.75 202.125 267.75 201.539063 267.164063 L 201.539063 266 L 203.875 245.875 L 204.164063 245.875 L 212.625 269.207031 L 213.5 269.207031 "/>
</g>
<g clip-path="url(#clip6)" clip-rule="nonzero">
<path style=" stroke:none;fill-rule:nonzero;fill:rgb(16.899109%,17.599487%,43.499756%);fill-opacity:1;" d="M 498.167969 238.875 L 498.167969 237.414063 L 487.960938 237.414063 L 487.960938 238.875 L 490 238.875 C 490.292969 238.875 490.585938 238.875 490.875 239.164063 C 491.167969 239.75 491.167969 240.625 491.167969 241.5 L 491.167969 252.289063 L 478.335938 252.289063 L 478.335938 240.625 C 478.335938 240.332031 478.335938 239.75 478.625 239.457031 C 479.210938 239.457031 480.085938 239.164063 480.667969 239.164063 L 481.25 239.164063 L 481.25 237.707031 L 471.042969 237.707031 L 471.042969 239.164063 L 471.625 239.164063 C 472.5 239.164063 473.085938 239.164063 473.960938 239.457031 C 474.25 240.332031 474.25 240.914063 474.25 241.789063 L 474.25 266.875 C 473.960938 267.75 473.085938 268.625 471.917969 268.332031 L 471.042969 268.332031 L 471.042969 269.789063 L 481.25 269.789063 L 481.25 268.332031 L 478.335938 268.332031 C 478.335938 268.332031 478.042969 268.039063 478.042969 267.75 L 478.042969 255.5 L 490.875 255.5 L 490.875 265.414063 C 490.875 266.289063 490.875 267.164063 490.585938 267.75 C 489.710938 268.039063 489.125 268.039063 488.25 268.039063 L 487.667969 268.039063 L 487.667969 269.5 L 497.875 269.5 L 497.875 268.039063 L 495.25 268.039063 L 494.960938 267.75 L 494.960938 240.039063 C 494.960938 240.039063 494.960938 239.75 495.25 239.75 L 497 239.75 "/>
</g>
<g clip-path="url(#clip7)" clip-rule="nonzero">
<path style=" stroke:none;fill-rule:nonzero;fill:rgb(16.899109%,17.599487%,43.499756%);fill-opacity:1;" d="M 510.710938 238.875 L 511.292969 238.875 L 511.292969 237.414063 L 500.792969 237.414063 L 500.792969 238.875 L 501.375 238.875 C 501.960938 238.875 502.835938 238.875 503.417969 239.164063 C 503.710938 240.039063 503.710938 240.914063 503.710938 241.789063 L 503.710938 265.414063 C 503.710938 266.289063 503.710938 266.875 503.417969 267.75 C 502.542969 268.039063 501.667969 268.039063 501.085938 268.039063 L 500.5 268.039063 L 500.5 269.789063 L 511 269.789063 L 511 268.332031 L 508.375 268.332031 L 508.085938 268.039063 L 508.085938 240.039063 C 508.085938 239.75 508.375 239.75 508.375 239.75 L 509.25 239.75 "/>
</g>
<g clip-path="url(#clip8)" clip-rule="nonzero">
<path style=" stroke:none;fill-rule:nonzero;fill:rgb(16.899109%,17.599487%,43.499756%);fill-opacity:1;" d="M 407.167969 252.582031 L 407.167969 239.164063 L 408.625 239.164063 C 410.085938 239.164063 411.835938 239.457031 413 240.621094 C 414.460938 242.082031 415.042969 244.121094 414.75 246.164063 C 415.042969 249.371094 412.710938 252.289063 409.5 252.582031 Z M 409.792969 254.621094 C 411.25 255.789063 412.125 256.957031 412.710938 258.707031 C 413.292969 260.457031 413.875 262.789063 414.460938 264.539063 C 414.75 265.707031 415.042969 267.164063 415.625 268.332031 C 416.210938 269.207031 417.085938 269.496094 417.960938 269.496094 L 422.042969 269.496094 L 422.042969 268.039063 C 421.167969 268.039063 420.292969 267.746094 419.417969 267.164063 C 418.835938 266.289063 418.542969 265.414063 418.25 264.539063 L 417.960938 263.371094 C 416.792969 258.121094 416.210938 255.789063 414.167969 254.332031 C 415.042969 253.746094 415.917969 253.164063 416.792969 252.289063 C 418.25 250.539063 418.835938 248.496094 418.835938 246.164063 C 418.835938 244.414063 418.542969 242.957031 417.667969 241.496094 C 417.085938 240.332031 415.917969 239.457031 414.75 238.871094 C 413 237.996094 410.960938 237.707031 408.917969 237.707031 L 399.875 237.707031 L 399.875 239.164063 L 400.460938 239.164063 C 401.042969 239.164063 401.335938 239.164063 401.917969 239.457031 C 402.210938 239.457031 402.5 239.746094 402.792969 239.746094 C 403.085938 240.332031 403.085938 240.914063 403.085938 241.496094 L 403.085938 265.996094 C 403.085938 266.582031 403.085938 267.164063 402.792969 268.039063 C 401.917969 268.332031 401.335938 268.332031 400.460938 268.332031 L 399.875 268.332031 L 399.875 269.789063 L 409.5 269.789063 L 409.5 268.332031 C 408.625 268.332031 408.042969 268.332031 407.167969 268.039063 C 406.875 267.457031 406.875 266.871094 406.875 266.289063 L 406.875 255.207031 "/>
</g>
<g clip-path="url(#clip9)" clip-rule="nonzero">
<path style=" stroke:none;fill-rule:nonzero;fill:rgb(16.899109%,17.599487%,43.499756%);fill-opacity:1;" d="M 77 264.25 C 75.542969 266 73.207031 267.164063 70.875 267.164063 L 70 267.164063 L 70 239.457031 L 70.582031 239.457031 C 72.625 239.457031 74.667969 240.332031 76.125 241.789063 C 78.75 244.125 79.917969 248.5 79.917969 254.332031 C 80.207031 257.832031 79.332031 261.332031 77 264.25 M 83.417969 259.875 C 84 257.832031 84.292969 255.789063 84.292969 253.75 C 84.582031 249.664063 83.417969 245.582031 81.375 242.375 C 78.75 238.875 74.375 236.832031 70 237.414063 L 63 237.414063 L 63 238.875 L 65.625 238.875 C 65.625 238.875 65.917969 239.164063 65.917969 239.457031 L 65.917969 265.125 C 65.917969 266 65.917969 266.875 65.625 267.75 C 64.75 268.039063 64.167969 268.039063 63.292969 268.039063 L 62.707031 268.039063 L 62.707031 269.789063 L 71.167969 269.789063 C 74.957031 269.789063 78.457031 268.332031 80.792969 265.414063 C 82.25 263.375 83.125 261.625 83.417969 259.875 "/>
</g>
<g clip-path="url(#clip10)" clip-rule="nonzero">
<path style=" stroke:none;fill-rule:nonzero;fill:rgb(16.899109%,17.599487%,43.499756%);fill-opacity:1;" d="M 268.917969 267.457031 L 268.335938 267.457031 L 268.335938 239.164063 L 268.625 239.164063 C 270.960938 239.164063 273 240.039063 274.75 241.496094 C 277.667969 244.996094 279.125 249.371094 278.542969 253.746094 C 278.542969 263.664063 272.417969 267.457031 268.917969 267.457031 M 281.75 259.871094 C 282.335938 257.832031 282.625 255.789063 282.625 253.746094 C 282.917969 249.664063 281.75 245.871094 279.710938 242.371094 C 277.085938 238.871094 272.710938 236.832031 268.335938 237.414063 L 261.625 237.414063 L 261.625 238.871094 L 263.960938 238.871094 C 263.960938 238.871094 264.25 239.164063 264.25 239.457031 L 264.25 265.121094 C 264.25 265.996094 264.25 266.871094 263.960938 267.746094 C 263.085938 268.039063 262.5 268.039063 261.625 268.039063 L 261.625 269.789063 L 269.5 269.789063 C 273.292969 269.789063 276.792969 268.332031 279.417969 265.121094 C 280.585938 263.371094 281.460938 261.621094 281.75 259.871094 "/>
</g>
<g clip-path="url(#clip11)" clip-rule="nonzero">
<path style=" stroke:none;fill-rule:nonzero;fill:rgb(16.899109%,17.599487%,43.499756%);fill-opacity:1;" d="M 176.75 256.082031 L 180.25 244.996094 L 184.042969 256.082031 Z M 185.5 260.746094 L 187.25 266.289063 C 187.542969 266.582031 187.542969 267.164063 187.542969 267.457031 C 186.957031 267.746094 186.667969 267.746094 186.082031 267.746094 L 185.5 267.746094 L 185.5 269.207031 L 194.542969 269.207031 L 194.542969 267.746094 C 193.375 267.746094 192.207031 267.164063 191.625 266.582031 L 191.332031 265.996094 C 191.042969 265.414063 191.042969 265.121094 190.75 264.539063 L 181.417969 237.121094 L 180.25 237.121094 L 171.207031 265.414063 C 170.917969 266.289063 170.625 266.871094 170.332031 267.457031 C 169.75 267.746094 168.875 267.746094 168 267.746094 L 167.417969 267.746094 L 167.417969 269.496094 L 175 269.496094 L 175 268.039063 L 174.417969 268.039063 C 173.832031 268.039063 173.542969 268.039063 172.957031 267.746094 C 172.957031 267.457031 173.25 266.871094 173.25 266.582031 L 175.875 258.121094 L 184.625 258.121094 "/>
</g>
<g clip-path="url(#clip12)" clip-rule="nonzero">
<path style=" stroke:none;fill-rule:nonzero;fill:rgb(16.899109%,17.599487%,43.499756%);fill-opacity:1;" d="M 241.5 256.082031 L 245 244.996094 L 248.792969 256.082031 Z M 250.25 260.746094 L 252.292969 266.289063 C 252.582031 266.582031 252.582031 267.164063 252.582031 267.457031 C 252 267.746094 251.707031 267.746094 251.125 267.746094 L 250.542969 267.746094 L 250.542969 269.207031 L 259.582031 269.207031 L 259.582031 267.746094 C 258.417969 267.746094 257.25 267.164063 256.667969 266.582031 L 256.375 265.996094 C 256.082031 265.414063 256.082031 265.121094 255.792969 264.539063 L 246.457031 237.121094 L 245.292969 237.121094 L 236.25 265.414063 C 235.957031 266.289063 235.667969 266.871094 235.375 267.457031 C 234.792969 267.746094 233.917969 267.746094 233.042969 267.746094 L 233.042969 269.496094 L 240.042969 269.496094 L 240.042969 268.039063 L 239.167969 268.039063 C 238.582031 268.039063 238.292969 268.039063 237.707031 267.746094 C 237.707031 267.457031 238 266.871094 238 266.582031 L 240.625 258.121094 L 249.375 258.121094 "/>
</g>
<g clip-path="url(#clip13)" clip-rule="nonzero">
<path style=" stroke:none;fill-rule:nonzero;fill:rgb(16.899109%,17.599487%,43.499756%);fill-opacity:1;" d="M 432.835938 256.082031 L 436.335938 245.289063 L 440.125 256.371094 Z M 441.875 261.332031 L 443.625 266.289063 C 443.917969 266.582031 443.917969 267.164063 443.917969 267.457031 C 443.335938 267.746094 443.042969 267.746094 442.460938 267.746094 L 441.875 267.746094 L 441.875 269.496094 L 450.917969 269.496094 L 450.917969 268.039063 C 449.75 268.039063 448.585938 267.457031 448 266.871094 L 447.710938 266.289063 C 447.417969 265.707031 447.417969 265.414063 447.125 264.832031 L 437.792969 237.414063 L 436.625 237.414063 L 427.292969 265.414063 C 427 266.289063 426.710938 266.871094 426.417969 267.457031 C 425.835938 267.746094 424.960938 267.746094 424.085938 267.746094 L 424.085938 269.496094 L 431.085938 269.496094 L 431.085938 268.039063 L 430.5 268.039063 C 429.917969 268.039063 429.625 268.039063 429.042969 267.746094 C 429.042969 267.457031 429.335938 266.871094 429.335938 266.582031 L 431.960938 258.121094 L 440.710938 258.121094 "/>
</g>
<g clip-path="url(#clip14)" clip-rule="nonzero">
<path style=" stroke:none;fill-rule:nonzero;fill:rgb(16.899109%,17.599487%,43.499756%);fill-opacity:1;" d="M 295.167969 258.414063 L 298.085938 249.371094 L 301 258.414063 Z M 303.625 266.289063 C 303.917969 266.871094 303.917969 267.164063 303.917969 267.457031 L 302.167969 267.457031 L 302.167969 269.207031 L 309.75 269.207031 L 309.75 267.746094 C 308.875 267.746094 308 267.457031 307.417969 266.871094 L 306.835938 265.414063 L 299.25 242.957031 L 298.085938 242.957031 L 290.210938 266.289063 C 290.210938 266.871094 289.917969 267.457031 289.625 268.039063 L 287 268.039063 L 287 269.789063 L 293.417969 269.789063 L 293.417969 268.039063 L 291.667969 268.039063 C 291.667969 267.746094 291.667969 267.457031 291.960938 267.164063 L 294 260.457031 L 301.292969 260.457031 "/>
</g>
<g clip-path="url(#clip15)" clip-rule="nonzero">
<path style=" stroke:none;fill-rule:nonzero;fill:rgb(16.899109%,17.599487%,43.499756%);fill-opacity:1;" d="M 134.75 261.039063 L 133.582031 261.039063 L 133.582031 261.621094 C 133.582031 263.082031 133.292969 264.832031 132.417969 265.996094 C 131.832031 266.871094 130.667969 267.457031 129.5 267.164063 L 123.082031 267.164063 L 123.082031 239.164063 C 123.082031 239.164063 123.082031 238.871094 123.375 238.871094 L 126.292969 238.871094 L 126.292969 237.121094 L 116.082031 237.121094 L 116.082031 238.582031 L 116.667969 238.582031 C 117.542969 238.582031 118.417969 238.582031 119 238.871094 C 119 239.457031 119.292969 240.039063 119.292969 240.332031 L 119.292969 265.707031 C 119.292969 266.289063 119.292969 266.582031 119 267.164063 C 118.125 267.457031 117.542969 267.457031 116.667969 267.457031 L 116.082031 267.457031 L 116.082031 269.207031 L 135.042969 269.207031 "/>
</g>
<g clip-path="url(#clip16)" clip-rule="nonzero">
<path style=" stroke:none;fill-rule:nonzero;fill:rgb(16.899109%,17.599487%,43.499756%);fill-opacity:1;" d="M 327.25 262.207031 L 325.792969 262.207031 L 325.792969 262.789063 C 325.792969 263.957031 325.792969 265.414063 325.210938 266.289063 C 324.625 267.164063 323.75 267.457031 322.875 267.164063 L 317.625 267.164063 L 317.625 244.414063 C 317.625 244.414063 317.625 244.121094 317.917969 244.121094 L 320.25 244.121094 L 320.25 242.664063 L 312.085938 242.664063 L 312.085938 244.121094 C 312.667969 244.121094 313.25 244.121094 313.835938 244.414063 L 313.835938 266.582031 C 313.835938 266.871094 313.835938 267.457031 313.542969 267.746094 L 311.792969 267.746094 L 312.085938 267.746094 L 312.085938 269.496094 L 327.542969 269.496094 "/>
</g>
<g clip-path="url(#clip17)" clip-rule="nonzero">
<path style=" stroke:none;fill-rule:nonzero;fill:rgb(16.899109%,17.599487%,43.499756%);fill-opacity:1;" d="M 11.082031 253.75 L 16.625 237.707031 L 16.625 238 L 22.457031 253.75 Z M 24.207031 258.414063 L 26.832031 265.414063 C 27.125 266 27.417969 266.875 27.417969 267.457031 L 26.832031 267.75 C 26.542969 267.75 25.957031 267.75 25.667969 268.039063 L 25.082031 268.039063 L 25.082031 269.5 L 36.167969 269.5 L 36.167969 268.039063 C 34.707031 268.039063 33.25 267.164063 32.375 266 C 32.082031 265.125 31.792969 264.25 31.5 263.664063 L 18.082031 226.914063 L 4.667969 264.832031 C 4.375 265.707031 4.082031 266.875 3.207031 267.457031 C 2.332031 267.75 1.457031 268.039063 0.582031 268.039063 L 0 268.039063 L 0 269.5 L 8.75 269.5 L 8.75 268.039063 L 8.167969 268.039063 C 7.582031 268.039063 7 268.039063 6.417969 267.75 C 6.417969 267.164063 6.707031 266.582031 7 266 L 10.5 256.375 L 23.332031 256.375 "/>
</g>
<g clip-path="url(#clip18)" clip-rule="nonzero">
<path style=" stroke:none;fill-rule:nonzero;fill:rgb(16.899109%,17.599487%,43.499756%);fill-opacity:1;" d="M 350 254.332031 C 353.210938 254.332031 355.835938 255.789063 357.875 258.121094 L 360.210938 260.746094 C 358.460938 264.246094 354.667969 266.582031 350.875 266.871094 L 350.585938 266.871094 C 346.792969 266.582031 343.292969 264.539063 341.25 261.621094 C 338.625 257.539063 337.167969 252.871094 337.167969 248.207031 C 337.167969 245.582031 337.460938 243.246094 338.042969 240.621094 C 338.625 238.582031 339.5 236.246094 340.667969 234.496094 C 341.835938 232.746094 343 231.289063 344.75 230.414063 C 346.210938 229.539063 347.960938 228.957031 349.710938 228.957031 L 350 228.957031 C 353.792969 229.246094 357.292969 231.289063 359.042969 234.496094 C 361.667969 238.582031 363.125 243.246094 363.125 248.207031 C 363.125 251.121094 362.835938 254.039063 361.960938 256.957031 C 360.792969 255.789063 359.625 254.914063 357.875 254.332031 C 355.835938 253.746094 353.5 253.457031 351.460938 253.457031 L 349.125 253.457031 L 349.125 254.914063 Z M 362.542969 263.957031 L 363.710938 265.121094 C 364.875 266.582031 366.335938 267.746094 368.085938 268.332031 C 370.417969 268.914063 372.75 269.207031 375.085938 269.207031 L 376.835938 269.207031 L 376.835938 268.039063 L 376.25 268.039063 C 373.335938 268.039063 370.417969 266.582031 368.375 264.246094 C 367.210938 263.082031 366.042969 261.914063 364.875 260.457031 C 366.917969 256.664063 368.085938 252.582031 368.085938 248.207031 C 368.085938 245.289063 367.5 242.664063 366.625 240.039063 C 365.75 237.707031 364.292969 235.371094 362.835938 233.332031 C 361.085938 231.582031 359.335938 229.832031 357 228.664063 C 354.960938 227.496094 352.335938 226.914063 350 226.914063 C 347.667969 226.914063 345.042969 227.496094 343 228.664063 C 340.667969 229.832031 338.917969 231.289063 337.167969 233.332031 C 335.417969 235.371094 334.25 237.707031 333.375 240.039063 C 332.5 242.664063 331.917969 245.582031 332.210938 248.207031 C 332.210938 253.746094 334.25 258.707031 337.75 263.082031 C 339.5 264.832031 341.25 266.582031 343.585938 267.457031 C 345.625 268.621094 348.25 269.207031 350.585938 269.207031 L 350.875 269.207031 C 355.25 269.207031 359.625 267.164063 362.542969 263.957031 "/>
</g>
<path style=" stroke:none;fill-rule:nonzero;fill:rgb(16.899109%,17.599487%,43.499756%);fill-opacity:1;" d="M 287.585938 177.039063 L 279.417969 169.746094 C 280.875 174.414063 280.585938 179.375 279.125 183.75 Z M 305.375 158.371094 L 305.375 132.414063 C 294.292969 115.789063 287.585938 111.707031 285.542969 110.539063 L 285.25 110.832031 C 284.085938 111.707031 282.625 112.289063 281.167969 112.871094 C 277.085938 114.332031 269.5 115.496094 255.792969 115.496094 C 248.5 115.789063 241.5 115.207031 234.210938 114.039063 C 231.292969 113.746094 228.667969 112.582031 226.335938 111.121094 L 226.042969 110.832031 L 225.75 110.832031 C 224.585938 111.707031 223.125 112.582031 222.25 113.457031 C 216.417969 118.996094 211.167969 125.414063 206.792969 132.414063 L 206.792969 158.371094 C 209.417969 156.914063 215.25 151.082031 226.917969 129.207031 L 284.667969 129.207031 C 296.625 151.082031 302.460938 156.914063 305.375 158.371094 M 303.335938 175.875 C 305.085938 175.875 307.125 175.582031 308.585938 174.707031 C 309.75 174.125 310.625 173.25 311.5 172.082031 C 312.085938 171.207031 312.667969 170.332031 312.960938 169.164063 L 305.375 166.246094 L 305.085938 165.957031 C 305.085938 166.246094 304.792969 166.246094 304.792969 166.539063 C 302.75 167.414063 300.417969 167.707031 298.085938 167.414063 L 280.292969 167.414063 L 289.917969 176.164063 Z M 262.792969 174.414063 L 265.417969 171.5 C 267.460938 169.164063 270.085938 166.246094 272.710938 163.039063 C 271.835938 163.039063 270.960938 162.746094 270.375 162.746094 L 245.585938 162.746094 C 247.917969 163.332031 250.25 164.207031 252 165.664063 C 255.792969 168.289063 259.585938 171.207031 262.792969 174.414063 M 245.292969 184.332031 C 247.335938 179.375 246.75 173.832031 244.125 169.164063 L 237.710938 176.75 Z M 238.292969 197.75 C 243.835938 197.75 249.085938 196.289063 253.75 193.082031 C 258.710938 189 261.625 183.164063 261.625 176.75 C 258.417969 173.539063 254.625 170.625 250.835938 167.996094 C 249.085938 166.539063 246.75 165.664063 244.417969 165.371094 C 245.292969 166.246094 245.875 167.414063 246.460938 168.871094 L 246.460938 169.164063 C 249.375 174.125 249.960938 179.957031 247.625 185.207031 C 244.710938 191.332031 237.417969 195.125 227.210938 196 C 230.710938 197.164063 234.5 197.75 238.292969 197.75 M 315 171.5 C 313.835938 173.832031 312.085938 175.582031 310.042969 176.75 C 308 177.914063 305.667969 178.207031 303.335938 178.207031 L 289.917969 178.207031 L 279.417969 186.664063 L 309.75 186.664063 C 317.917969 186.375 324.335938 179.664063 324.335938 171.5 L 324.335938 146.707031 L 315.875 168.582031 C 315.875 169.457031 315.292969 170.625 315 171.5 M 275.042969 164.496094 C 271.542969 168.871094 267.75 172.957031 263.960938 177.039063 C 263.960938 184.039063 260.75 190.75 255.210938 195.414063 C 250.25 198.914063 244.417969 200.957031 238.292969 200.664063 C 234.210938 200.664063 230.125 199.789063 226.335938 198.332031 L 226.917969 198.625 C 236.542969 208.25 251.710938 209.707031 262.792969 201.832031 C 273 195.414063 281.460938 181.414063 276.210938 166.539063 C 275.917969 165.664063 275.625 165.082031 275.042969 164.496094 M 203 174.414063 C 204.75 175.289063 206.5 175.582031 208.25 175.582031 L 235.085938 175.582031 L 242.375 166.832031 L 212.625 166.832031 C 210.585938 167.121094 208.542969 166.832031 206.792969 166.246094 C 206.5 165.957031 206.5 165.957031 206.5 165.664063 L 206.210938 165.664063 L 198.335938 168.582031 C 198.625 169.164063 198.625 169.457031 198.917969 170.039063 C 199.792969 172.082031 201.25 173.539063 203 174.414063 M 322 145.832031 L 306.25 163.332031 L 306.542969 163.332031 L 314.125 166.246094 Z M 307.710938 133.289063 L 307.710938 158.082031 L 333.085938 130.957031 Z M 195.710938 53.664063 C 195.710938 50.164063 197.167969 46.957031 199.5 44.621094 C 201.835938 42.289063 205.042969 40.832031 208.542969 40.832031 L 224.875 40.832031 L 237.125 31.789063 C 237.417969 26.832031 237.417969 23.332031 237.417969 23.332031 C 237.417969 23.039063 237.417969 22.457031 237.125 22.164063 C 236.835938 21.871094 236.542969 21.582031 236.25 21.582031 L 233.917969 21.582031 C 236.25 13.707031 245 7.289063 255.792969 7.289063 C 266.292969 7.289063 275.625 13.707031 277.667969 21.582031 L 274.75 21.582031 C 274.167969 21.582031 273.585938 22.164063 273.585938 22.746094 L 273.585938 23.039063 C 273.585938 23.039063 273.585938 25.371094 273.875 31.207031 L 286.417969 40.539063 L 303.042969 40.539063 C 306.542969 40.539063 309.75 41.996094 312.085938 44.332031 C 314.417969 46.664063 315.875 50.164063 315.875 53.664063 L 315.875 92.457031 L 324.335938 115.207031 L 324.335938 47.246094 C 324.335938 38.789063 317.625 32.082031 309.167969 32.082031 L 280.875 32.082031 L 280.875 29.164063 L 283.210938 29.164063 C 283.792969 29.164063 284.375 28.582031 284.375 27.996094 L 284.375 25.957031 C 284.375 10.496094 269.5 -0.00390625 255.5 -0.00390625 C 241.5 -0.00390625 226.625 10.207031 226.625 25.957031 L 226.625 28.289063 C 226.625 28.871094 227.210938 29.457031 227.792969 29.457031 L 230.417969 29.457031 L 230.417969 32.371094 L 200.960938 32.371094 C 193.667969 32.371094 187.25 39.371094 187.25 47.246094 L 187.25 114.621094 L 195.710938 91.871094 Z M 235.375 178.207031 L 208.542969 178.207031 C 206.210938 178.207031 203.875 177.625 201.835938 176.75 C 200.375 175.875 198.917969 174.707031 198.042969 173.25 C 196.875 171.789063 196.292969 170.039063 195.710938 168.289063 L 187.25 146.707031 L 187.25 171.5 C 187.25 179.664063 193.667969 186.375 201.835938 186.664063 L 243.835938 186.664063 Z M 235.375 36.164063 L 226.917969 42.289063 L 231.292969 48.996094 C 232.460938 45.496094 233.917969 40.539063 235.375 36.164063 M 303.335938 43.164063 L 287 43.164063 L 281.75 51.914063 L 297.210938 51.914063 C 301.875 51.914063 305.667969 55.996094 305.667969 60.664063 L 305.667969 97.121094 L 313.835938 92.164063 L 313.835938 53.664063 C 313.835938 51.039063 312.667969 48.414063 310.917969 46.371094 C 308.585938 44.332031 305.960938 43.164063 303.335938 43.164063 M 220.210938 111.414063 C 221.667969 110.246094 223.125 109.082031 224.875 108.207031 L 224.875 107.621094 C 224.875 105.582031 225.167969 103.832031 225.75 101.789063 C 226.335938 99.457031 226.917969 97.121094 227.792969 94.496094 C 229.542969 89.539063 231.585938 84.289063 233.335938 80.207031 C 234.5 77.582031 235.375 75.539063 235.960938 74.371094 C 237.125 72.332031 238.585938 68.539063 240.335938 64.457031 C 242.085938 60.371094 243.835938 56.289063 245.585938 53.082031 C 247.917969 49.582031 250.835938 46.082031 254.335938 43.746094 L 254.335938 33.832031 L 242.375 23.039063 C 240.625 30.332031 225.167969 96.246094 178.5 128.039063 L 204.75 130.371094 C 209.125 123.371094 214.375 117.246094 220.210938 111.414063 M 306.25 99.164063 C 310.917969 105.289063 316.167969 110.832031 321.710938 116.082031 L 313.835938 94.789063 Z M 189.585938 115.789063 C 195.125 110.539063 200.375 104.996094 205.042969 98.871094 L 197.460938 94.496094 Z M 206.5 60.664063 C 206.210938 55.996094 210 52.207031 214.667969 51.914063 L 229.542969 51.914063 C 229.835938 51.914063 230.125 51.914063 230.125 51.621094 L 224.585938 43.164063 L 208.542969 43.164063 C 205.917969 43.164063 203.292969 44.332031 201.25 46.082031 C 199.210938 48.121094 198.335938 50.746094 198.335938 53.664063 L 198.335938 91.582031 L 206.5 96.246094 Z M 203.875 133.289063 L 178.210938 130.957031 L 203.875 158.082031 Z M 244.417969 21.582031 L 255.792969 31.789063 L 266.875 21.582031 Z M 205.625 163.332031 L 189.875 145.832031 L 197.75 166.246094 Z M 255.5 66.496094 C 257.542969 74.664063 261.917969 90.414063 266.292969 98.582031 L 245 98.582031 C 249.085938 90.121094 253.460938 74.371094 255.5 66.496094 M 233.917969 85.746094 C 231.875 90.414063 230.125 95.371094 228.667969 100.332031 C 228.085938 102.664063 227.5 104.996094 227.5 107.621094 L 227.5 108.496094 L 227.792969 108.789063 C 228.960938 109.371094 229.835938 109.957031 231.292969 110.246094 C 239.167969 112.289063 247.625 113.164063 255.792969 112.582031 C 274.460938 112.582031 281.167969 110.246094 283.210938 109.082031 C 283.5 108.789063 283.792969 108.789063 284.085938 108.496094 L 284.085938 107.621094 C 284.085938 105.871094 283.792969 104.121094 283.210938 102.371094 C 282.625 100.332031 282.042969 97.996094 281.167969 95.371094 C 279.710938 90.414063 277.375 85.164063 275.625 81.371094 C 274.167969 78.746094 273.292969 76.707031 272.710938 75.832031 C 271.542969 73.496094 269.792969 69.707031 268.042969 65.914063 C 266.292969 62.121094 264.542969 57.746094 262.792969 54.539063 C 261.042969 51.039063 258.417969 48.414063 255.210938 46.082031 L 254.917969 46.082031 C 254.042969 46.664063 253.460938 47.246094 252.875 47.832031 C 250.835938 49.582031 248.792969 51.914063 247.625 54.246094 C 246.167969 57.164063 244.125 61.539063 242.375 65.621094 C 240.625 69.707031 238.875 73.496094 237.710938 75.539063 C 237.710938 77.289063 235.960938 81.082031 233.917969 85.746094 M 268.917969 23.039063 L 256.960938 33.832031 L 256.960938 43.746094 C 260.460938 46.371094 263.375 49.582031 265.417969 53.371094 C 267.167969 56.582031 268.917969 60.664063 270.667969 64.746094 C 272.417969 68.832031 274.167969 72.621094 275.042969 74.664063 C 275.917969 76.707031 277.667969 80.207031 279.417969 84.582031 C 281.460938 89.539063 283.210938 94.496094 284.667969 99.457031 C 285.542969 102.082031 286.125 104.996094 286.125 107.621094 L 286.125 108.207031 C 287.875 109.082031 289.625 110.246094 291.085938 111.414063 C 297.210938 116.957031 302.460938 123.371094 306.835938 130.371094 L 332.5 128.039063 C 286.125 96.246094 270.667969 30.332031 268.917969 23.039063 M 280.292969 48.996094 L 284.375 41.996094 L 275.917969 36.164063 C 277.667969 40.832031 279.125 45.789063 280.292969 48.996094 "/>
</g>
</svg>
