<svg xmlns="http://www.w3.org/2000/svg" id="uuid-91bcdf19-228e-43f4-9a32-4e0ade100420" viewBox="0 0 1210.34 310.73"><defs><style>.uuid-971342ab-8c0b-44e0-9728-e94a5239e03d{fill:#e4ff04;}</style></defs><g id="uuid-8de42377-d162-446b-9e5e-4ced81611714"><g><path class="uuid-971342ab-8c0b-44e0-9728-e94a5239e03d" d="M274.01,164.15l-29.32-24-2.77-2.27h-67.67l11.58-44.57h88.34l.59-2.32,.91-3.58,15.24-60.03,.91-3.58-2.85-2.35-22.73-18.71-3.52-2.74H52.92L14.31,143.63l32.82,26.87,2.77,2.27H117.56l-11.58,44.57H17.64l-1.5,5.9L.91,283.25l-.91,3.58,2.85,2.35,26.06,21.46H238.89l1.66-6.16,15.06-56.01,.61-2.28,1.96-7.31,19.3-71.78-3.47-2.95Zm-66.43,36.4l-33.87-27.9,82.72,.09-48.85,27.81Zm58.25-23.25l-15.68,58.31-35.46-29.21,51.14-29.11Zm-123.86-30.81h21.15l-3.73,14.35-17.42-14.35Zm-49.73-40.96l51.16-29.12-15.7,58.33-35.45-29.2Zm-7.11-5.86l-33.9-27.92,82.99-.03-49.1,27.95ZM169.7,11.85l28.61,23.39-41.23,23.47,12.62-46.86Zm-22.01,48.62l-35.83-24.04,48.78-24.06-12.95,48.1Zm-11.52,2.64l-78.45,.03,45.23-22.31,33.22,22.28Zm69.28-22.03l26.89,21.99-65.56,.02,38.67-22.01Zm8.04-4.58l41.03-23.36-12.55,46.67-28.48-23.32Zm-7.14-5.84l-26.94-22.05h65.67l-38.74,22.05Zm-102.75,.24L70.37,8.61h78.44l-45.2,22.29ZM58.82,11.23l35.89,24.07-48.83,24.08L58.82,11.23Zm-17.15,63.8l35.46,29.21-51.14,29.11,15.68-58.31Zm42.57,35.06l33.87,27.9-82.72-.09,48.85-27.81Zm65.61,54.06h-21.15l3.73-14.35,17.42,14.35Zm49.73,40.96l-51.16,29.12,15.7-58.33,35.45,29.2Zm7.11,5.86l33.89,27.92-82.99,.03,49.1-27.95Zm-84.57,87.82l-28.61-23.39,41.23-23.47-12.62,46.86Zm22.01-48.62l35.83,24.03-48.78,24.06,12.95-48.1Zm11.52-2.64l78.45-.03-45.23,22.31-33.22-22.28Zm-69.28,22.03l-26.89-21.99,65.56-.03-38.67,22.01Zm-8.04,4.58l-41.03,23.36,12.55-46.67,28.48,23.32Zm7.14,5.84l26.93,22.05H46.72l38.74-22.05Zm102.75-.24l33.24,22.3h-78.44l45.2-22.3Zm44.79,19.68l-35.89-24.07,48.83-24.09-12.95,48.15Zm5.85-152.92l21.55,17.64-92.94-.1,4.56-17.54h66.83Zm-103.08-8.61l17.11-63.56,24.69,16.56-12.21,47h-29.59Zm48.05-53.18l-19.37-12.99,78.42-.03,15.9,13.02h-74.96Zm72.64-13.03h.01l-7.18-5.87,14.5-53.93,18.34,15.1-13.81,54.41-11.86-9.71ZM52.97,164.15l-21.55-17.64,92.94,.1-4.56,17.55H52.97Zm103.08,8.61l-17.11,63.56-24.69-16.56,12.21-47h29.59Zm-48.05,53.18l19.37,12.99-78.42,.03-15.9-13.02H108Zm-72.64,13.03h-.01l7.18,5.87-14.5,53.93-18.34-15.1,13.81-54.41,11.86,9.71Z"></path><polygon class="uuid-971342ab-8c0b-44e0-9728-e94a5239e03d" points="351.19 276.13 325.01 276.1 334.3 241.56 360.48 241.56 351.19 276.13"></polygon><polygon class="uuid-971342ab-8c0b-44e0-9728-e94a5239e03d" points="367.11 310.64 341.9 310.64 351.19 276.13 376.4 276.11 367.11 310.64"></polygon><polygon class="uuid-971342ab-8c0b-44e0-9728-e94a5239e03d" points="400.59 310.64 374.45 310.64 393 241.56 419.18 241.56 400.59 310.64"></polygon><polygon class="uuid-971342ab-8c0b-44e0-9728-e94a5239e03d" points="461.09 310.64 439.16 294.84 453.48 241.56 479.66 241.56 461.09 310.64"></polygon><polygon class="uuid-971342ab-8c0b-44e0-9728-e94a5239e03d" points="593.12 310.64 566.94 310.64 585.51 241.56 611.69 241.56 593.12 310.64"></polygon><polygon class="uuid-971342ab-8c0b-44e0-9728-e94a5239e03d" points="527.1 310.64 500.92 310.64 519.53 241.45 545.71 241.45 527.1 310.64"></polygon><polygon class="uuid-971342ab-8c0b-44e0-9728-e94a5239e03d" points="381.43 257.36 385.68 241.56 356.06 241.56 351.19 257.36 381.43 257.36"></polygon><polygon class="uuid-971342ab-8c0b-44e0-9728-e94a5239e03d" points="343.37 310.64 348.25 294.84 319.97 294.84 315.72 310.64 343.37 310.64"></polygon><polygon class="uuid-971342ab-8c0b-44e0-9728-e94a5239e03d" points="427.6 310.64 431.84 294.84 413.09 294.84 402.37 310.64 427.6 310.64"></polygon><polygon class="uuid-971342ab-8c0b-44e0-9728-e94a5239e03d" points="542.71 310.64 534.43 284.89 553.18 284.89 567.93 310.64 542.71 310.64"></polygon><polygon class="uuid-971342ab-8c0b-44e0-9728-e94a5239e03d" points="608.95 310.64 600.66 284.89 619.42 284.89 634.17 310.64 608.95 310.64"></polygon><polygon class="uuid-971342ab-8c0b-44e0-9728-e94a5239e03d" points="441.95 257.36 446.2 241.56 427.45 241.56 416.73 257.36 441.95 257.36"></polygon><polygon class="uuid-971342ab-8c0b-44e0-9728-e94a5239e03d" points="434.75 284 439 268.2 420.25 268.2 409.53 284 434.75 284"></polygon><path class="uuid-971342ab-8c0b-44e0-9728-e94a5239e03d" d="M486.97,241.56l-18.57,69.08c14.85,0,27.85-9.96,31.71-24.3l5.51-20.44c3.31-12.27-5.94-24.34-18.65-24.34"></path><path class="uuid-971342ab-8c0b-44e0-9728-e94a5239e03d" d="M552.99,241.56l-11.81,43.93h25.21l5.27-19.59c3.3-12.28-5.95-24.34-18.66-24.34"></path><path class="uuid-971342ab-8c0b-44e0-9728-e94a5239e03d" d="M891.06,310.73h0c-13.2,0-22.81-12.53-19.38-25.28l11.81-43.91h26.18l-18.6,69.19Z"></path><path class="uuid-971342ab-8c0b-44e0-9728-e94a5239e03d" d="M899.05,310.73h0l18.6-69.19h26.18l-11.81,43.91c-4.01,14.92-17.53,25.28-32.98,25.28"></path><polygon class="uuid-971342ab-8c0b-44e0-9728-e94a5239e03d" points="766.14 310.73 740 310.73 758.55 241.65 784.73 241.65 766.14 310.73"></polygon><polygon class="uuid-971342ab-8c0b-44e0-9728-e94a5239e03d" points="1043.35 310.73 1017.21 310.73 1035.76 241.65 1061.94 241.65 1043.35 310.73"></polygon><polygon class="uuid-971342ab-8c0b-44e0-9728-e94a5239e03d" points="964.51 310.73 938.37 310.73 956.92 241.65 983.1 241.65 964.51 310.73"></polygon><polygon class="uuid-971342ab-8c0b-44e0-9728-e94a5239e03d" points="793.15 310.73 797.39 294.93 764.57 294.93 753.85 310.73 793.15 310.73"></polygon><polygon class="uuid-971342ab-8c0b-44e0-9728-e94a5239e03d" points="693.09 310.73 666.91 310.73 685.48 241.65 711.66 241.65 693.09 310.73"></polygon><polygon class="uuid-971342ab-8c0b-44e0-9728-e94a5239e03d" points="708.91 310.73 700.63 284.97 719.38 284.97 734.14 310.73 708.91 310.73"></polygon><polygon class="uuid-971342ab-8c0b-44e0-9728-e94a5239e03d" points="1080.16 310.73 1053.98 310.73 1072.55 241.65 1098.73 241.65 1080.16 310.73"></polygon><polygon class="uuid-971342ab-8c0b-44e0-9728-e94a5239e03d" points="1095.98 310.73 1087.7 284.97 1106.45 284.97 1121.21 310.73 1095.98 310.73"></polygon><polygon class="uuid-971342ab-8c0b-44e0-9728-e94a5239e03d" points="984.61 310.73 966.04 241.65 976.63 241.65 1000.16 310.73 984.61 310.73"></polygon><polygon class="uuid-971342ab-8c0b-44e0-9728-e94a5239e03d" points="828.02 310.73 801.84 310.73 820.44 241.54 846.62 241.54 828.02 310.73"></polygon><path class="uuid-971342ab-8c0b-44e0-9728-e94a5239e03d" d="M844.22,276.13l-9.3,34.6h12.92c7.82,0,14.67-5.25,16.7-12.81,2.95-10.99-5.32-21.79-16.7-21.79h-3.62Z"></path><path class="uuid-971342ab-8c0b-44e0-9728-e94a5239e03d" d="M869.45,259.15h0c2.39-8.88-4.3-17.62-13.5-17.62h-2.21l-7.52,27.97h9.73c6.33,0,11.86-4.25,13.5-10.35"></path><polygon class="uuid-971342ab-8c0b-44e0-9728-e94a5239e03d" points="995.17 241.65 990.48 259.1 1005.32 301.21 1021.35 241.65 995.17 241.65"></polygon><polygon class="uuid-971342ab-8c0b-44e0-9728-e94a5239e03d" points="1153.51 310.73 1127.37 310.73 1145.92 241.65 1172.1 241.65 1153.51 310.73"></polygon><polygon class="uuid-971342ab-8c0b-44e0-9728-e94a5239e03d" points="1173.6 310.73 1155.04 241.65 1165.62 241.65 1189.15 310.73 1173.6 310.73"></polygon><polygon class="uuid-971342ab-8c0b-44e0-9728-e94a5239e03d" points="1184.16 241.65 1179.48 259.1 1194.32 301.21 1210.34 241.65 1184.16 241.65"></polygon><polygon class="uuid-971342ab-8c0b-44e0-9728-e94a5239e03d" points="967.7 109.32 996.01 65.89 966.05 65.89 925.17 109.32 967.7 109.32"></polygon><polygon class="uuid-971342ab-8c0b-44e0-9728-e94a5239e03d" points="345.6 81.18 311.22 164.49 335.81 164.49 382.85 81.18 345.6 81.18"></polygon><polygon class="uuid-971342ab-8c0b-44e0-9728-e94a5239e03d" points="630.86 182.95 621.18 213.05 643.1 213.05 660.34 182.95 630.86 182.95"></polygon><polygon class="uuid-971342ab-8c0b-44e0-9728-e94a5239e03d" points="498.14 182.95 488.46 213.05 510.37 213.05 527.62 182.95 498.14 182.95"></polygon><polygon class="uuid-971342ab-8c0b-44e0-9728-e94a5239e03d" points="549.69 213.05 559.37 182.95 537.45 182.95 520.21 213.05 549.69 213.05"></polygon><polygon class="uuid-971342ab-8c0b-44e0-9728-e94a5239e03d" points="616.57 .05 606.89 30.15 628.8 30.15 646.04 .05 616.57 .05"></polygon><polygon class="uuid-971342ab-8c0b-44e0-9728-e94a5239e03d" points="398.53 .05 388.85 30.15 410.76 30.15 426.65 .05 398.53 .05"></polygon><polygon class="uuid-971342ab-8c0b-44e0-9728-e94a5239e03d" points="1134.59 164.49 1097.34 164.49 1123.85 65.89 1161.1 65.89 1134.59 164.49"></polygon><polygon class="uuid-971342ab-8c0b-44e0-9728-e94a5239e03d" points="651.12 164.5 619.34 144.13 640.38 65.89 677.63 65.89 651.12 164.5"></polygon><polygon class="uuid-971342ab-8c0b-44e0-9728-e94a5239e03d" points="1178.36 184.87 1146.59 164.5 1173.09 65.89 1210.34 65.89 1178.36 184.87"></polygon><polygon class="uuid-971342ab-8c0b-44e0-9728-e94a5239e03d" points="1006.7 164.49 974.97 144.14 996.01 65.89 1033.26 65.89 1006.7 164.49"></polygon><polygon class="uuid-971342ab-8c0b-44e0-9728-e94a5239e03d" points="552.64 164.49 520.86 144.14 541.89 65.89 579.14 65.89 552.64 164.49"></polygon><polygon class="uuid-971342ab-8c0b-44e0-9728-e94a5239e03d" points="1085.4 164.49 1053.56 144.19 1074.61 65.89 1111.86 65.89 1085.4 164.49"></polygon><polygon class="uuid-971342ab-8c0b-44e0-9728-e94a5239e03d" points="601.88 164.49 564.63 164.49 596.46 46.09 633.71 46.09 601.88 164.49"></polygon><polygon class="uuid-971342ab-8c0b-44e0-9728-e94a5239e03d" points="890.8 192.64 853.51 192.64 887.59 65.89 924.84 65.89 890.8 192.64"></polygon><polygon class="uuid-971342ab-8c0b-44e0-9728-e94a5239e03d" points="445.54 164.5 408.32 164.5 440.12 46.09 477.38 46.09 445.54 164.5"></polygon><polygon class="uuid-971342ab-8c0b-44e0-9728-e94a5239e03d" points="841.05 164.49 803.81 164.49 848.02 .05 885.26 .05 841.05 164.49"></polygon><polygon class="uuid-971342ab-8c0b-44e0-9728-e94a5239e03d" points="494.78 164.49 457.53 164.49 501.74 .05 538.99 .05 494.78 164.49"></polygon><polygon class="uuid-971342ab-8c0b-44e0-9728-e94a5239e03d" points="778.28 164.49 741.03 164.49 785.24 .05 822.49 .05 778.28 164.49"></polygon><polygon class="uuid-971342ab-8c0b-44e0-9728-e94a5239e03d" points="713.53 164.49 676.28 164.49 720.49 .05 757.75 .05 713.53 164.49"></polygon><polygon class="uuid-971342ab-8c0b-44e0-9728-e94a5239e03d" points="915.55 164.49 1085.4 164.49 1092.14 139.09 915.55 158.88 915.55 164.49"></polygon><polygon class="uuid-971342ab-8c0b-44e0-9728-e94a5239e03d" points="319.75 164.49 443.19 164.49 450.02 139.09 319.75 158.88 319.75 164.49"></polygon><polygon class="uuid-971342ab-8c0b-44e0-9728-e94a5239e03d" points="707.46 164.49 508.34 164.49 501.51 139.09 707.46 158.88 707.46 164.49"></polygon></g></g></svg>