<svg id="Layer_1" data-name="Layer 1" xmlns="http://www.w3.org/2000/svg" viewBox="0 0 300 156.58"><defs><style>.cls-1{fill:#069ca8;}.cls-2{fill:#f8cd2c;}</style></defs><title>tbcnew</title><path class="cls-1" d="M100.4,97.34c0-14.09.09-28.18-.06-42.26,0-2.79.83-3.54,3.51-3.52,6.86.06,6.86-.06,6.86-6.94,0-8.94.13-17.88-.08-26.82-.07-3,1-3.62,3.73-3.6,16.42.12,32.84-.18,49.25.12,15.7.28,27.06,8.12,33.68,22.09s4.27,27.23-5.19,39.2c-1.83,2.32-2.16,3.45-.12,6,9.68,12,12,25.51,5.23,39.5S179,142.88,163,143c-19.6.09-39.2,0-58.8.09-3,0-3.94-.72-3.9-3.81C100.49,125.27,100.4,111.3,100.4,97.34Zm46.7-55.19c-3.55,0-7.09.06-10.63,0-1.65,0-2.47.45-2.44,2.26.06,5.86,0,11.72,0,17.59,0,1.43.36,2.29,2,2.27,7.08-.07,14.18.24,21.25-.18,6.12-.36,10.34-5.81,10-11.89-.36-5.68-5-10-11-10C153.2,42.12,150.15,42.15,147.1,42.15Zm-.4,72.92v0c2.94,0,5.88,0,8.82,0,6.65,0,11.41-4.1,11.79-10,.41-6.33-4-11.51-10.82-11.89S143,93.05,136.29,93c-1.86,0-2.26.91-2.25,2.5,0,5.76.05,11.52,0,17.27,0,1.74.67,2.39,2.39,2.36C139.84,115,143.27,115.07,146.7,115.07Z"/><path class="cls-1" d="M56.71,14.37c15.42,0,30.85.08,46.28-.06,3.07,0,4.29.57,4.19,4-.26,8.8-.19,17.63,0,26.44.06,2.81-.89,3.51-3.56,3.46-8.69-.15-17.39.09-26.07-.13-3.31-.08-4.34.76-4.32,4.23.14,28.89,0,57.78.14,86.67,0,3.25-.83,4.16-4.07,4.07-8.56-.23-17.14-.2-25.71,0-3.06.07-3.9-.84-3.88-3.91.12-28.65.09-57.29.1-85.94,0-5,0-5-5.22-5-8.2,0-16.41-.1-24.61.06-2.63,0-3.33-.87-3.29-3.36C6.79,35.9,6.82,27,6.67,18c0-2.9.87-3.74,3.76-3.72C25.86,14.45,41.28,14.38,56.71,14.37Z"/><path class="cls-1" d="M246.07,143c-17-.15-31-5.88-43.21-16.54-2-1.75-1.91-2.77-.06-4.58q9.73-9.48,19.13-19.31c1.67-1.74,2.61-1.68,4.44-.25a31.06,31.06,0,0,0,39-.46c1.44-1.18,2.2-1.28,3.55.08q10.08,10.17,20.37,20.13c1.61,1.56,1.24,2.43-.23,3.77C276.64,137.14,262.15,143,246.07,143Z"/><path class="cls-1" d="M290.44,33.57c-.59.65-1,1.21-1.54,1.72C282.27,42,275.58,48.64,269,55.43c-1.49,1.55-2.37,1.28-3.89.08a31.19,31.19,0,0,0-39,.17c-1.77,1.44-2.62,1.3-4.13-.24q-9.76-10-19.81-19.67c-1.69-1.62-1.52-2.34.1-3.91C225.44,9.39,264.8,9,288.14,31.08,288.93,31.82,289.61,32.67,290.44,33.57Z"/><path class="cls-2" d="M203.68,113.77c2-12.64-.43-23.76-8.13-33.53-.75-1-1.06-1.78-.17-2.91,7.28-9.2,10-19.71,8.75-31.3a4.4,4.4,0,0,1,.31-1.27c2.6,1.52,4.18,3.85,6.11,5.78,8.74,8.73,17.39,17.56,26.17,26.26,1.61,1.59,1.57,2.5,0,4.09-10.56,10.54-21,21.19-31.53,31.8A15.51,15.51,0,0,1,203.68,113.77Z"/></svg>