<svg id="svg8" height="512" viewBox="0 0 33.866666 33.866668" width="512" xmlns="http://www.w3.org/2000/svg" xmlns:xlink="http://www.w3.org/1999/xlink" xmlns:svg="http://www.w3.org/2000/svg"><linearGradient id="linearGradient3363" gradientUnits="userSpaceOnUse" x1="-180.440378" x2="-180.440378" y1="97.375304" y2="99.607314"><stop id="stop2198" offset="0" stop-color="#f6f600"/><stop id="stop2200" offset="1" stop-color="#f69134"/></linearGradient><linearGradient id="linearGradient3728"><stop id="stop3724" offset="0" stop-color="#f5f8ff"/><stop id="stop3726" offset="1" stop-color="#a0c9ff"/></linearGradient><linearGradient id="linearGradient9584" gradientTransform="matrix(.707 .707 -.707 .707 -29.591 -8.539)" gradientUnits="userSpaceOnUse" x1="18.263" x2="22.255" xlink:href="#linearGradient3728" y1="12.529" y2="12.529"/><linearGradient id="linearGradient9760" gradientUnits="userSpaceOnUse" x1="10.782" x2="10.782" y1="32.808" y2="5.027"><stop id="stop1615" offset="0" stop-color="#ff7e3f"/><stop id="stop1617" offset="1" stop-color="#ffbe3f"/></linearGradient><linearGradient id="linearGradient9764" gradientTransform="matrix(-1.283 0 0 1.283 27.459 4.415)" gradientUnits="userSpaceOnUse" x1="10.809" x2="10.809" xlink:href="#linearGradient3728" y1="-1.585" y2="2.743"/><linearGradient id="linearGradient10191" gradientUnits="userSpaceOnUse" x1="24.830825" x2="24.830825" y1="24.903599" y2="8.986343"><stop id="stop1994" offset="0" stop-color="#0056ff"/><stop id="stop1996" offset="1" stop-color="#0dcfee"/></linearGradient><linearGradient id="linearGradient3218"><stop id="stop3214" offset="0" stop-color="#eaf2ff"/><stop id="stop3216" offset="1" stop-color="#9bbaff"/></linearGradient><linearGradient id="linearGradient6961-3" gradientUnits="userSpaceOnUse" x1="12.717" x2="12.717" xlink:href="#linearGradient3218" y1="23.326" y2="25.244"/><linearGradient id="linearGradient6965-6" gradientUnits="userSpaceOnUse" x1="8.32" x2="8.32" xlink:href="#linearGradient3218" y1="23.326" y2="25.244"/><linearGradient id="linearGradient10382-2" gradientUnits="userSpaceOnUse" x1="23.724" x2="23.724" xlink:href="#linearGradient3728" y1="14.016" y2="20.769"/><g id="layer1"><path id="rect9637" d="m3.704166 2.3812496h21.16667c1.465792 0 2.645833 1.1800416 2.645833 2.6458332v23.8125002c0 1.465792-1.180041 2.645834-2.645833 2.645834h-21.16667c-1.465792 0-2.645833-1.180042-2.645833-2.645834v-23.8125002c0-1.4657916 1.180041-2.6458332 2.645833-2.6458332z" fill="url(#linearGradient9760)" stroke-dasharray=".265 1.06" stroke-linecap="square" stroke-width=".265" paint-order="markers fill stroke"/><path id="path9762" d="m18.214096 2.3812496v5.9959485c0 1.183965-1.032253 1.339358-1.767764.603834-.497348-.497348-1.472253-1.127348-2.158831-1.127348-.686591 0-1.661483.63-2.158831 1.127348-.735524.735524-1.767765.580131-1.767765-.603834v-5.9959485z" fill="url(#linearGradient9764)" paint-order="markers fill stroke"/><path id="path9766" d="m1.52523 28.573449v.263549h.529167v-.263549zm1.321883 0v.263549h.529684v-.263549zm1.246953 0v.263549h.527099v-.263549zm1.321883 0v.263549h.529683v-.263549zm1.3224 0v.263549h.529166v-.263549zm1.3224 0v.263549h.529166v-.263549zm1.32395 0v.263549h.529683v-.263549zm1.322399 0v.263549h.529168v-.263549zm1.322401 0v.263549h.529167v-.263549zm1.32395 0v.263549h.529684v-.263549zm1.3224 0v.263549h.529684v-.263549zm1.3224 0v.263549h.529167v-.263549zm1.324467 0v.263549h.529167v-.263549zm1.321883 0v.263549h.529167v-.263549zm1.3224 0v.263549h.529167v-.263549zm1.324467 0v.263549h.529167v-.263549zm1.321883 0v.263549h.529167v-.263549zm1.3224 0v.263549h.529167v-.263549zm1.262455 0v.263549h.529167v-.263549zm1.321883 0v.263549h.529685v-.263549z" fill="#e53b38" font-variant-ligatures="normal" font-variant-position="normal" font-variant-caps="normal" font-variant-numeric="normal" font-variant-alternates="normal" font-variant-east-asian="normal" font-feature-settings="normal" font-variation-settings="normal" text-indent="0" text-align="start" text-decoration-line="none" text-decoration-style="solid" text-decoration-color="#000000" text-transform="none" text-orientation="mixed" white-space="normal" shape-padding="0" shape-margin="0" inline-size="0" isolation="auto" mix-blend-mode="normal" solid-color="#000000" solid-opacity="1" vector-effect="none" paint-order="markers fill stroke"/><path id="path9639" d="m24.835006 8.9600068a7.9733274 7.9733274 0 0 0 -7.973326 7.9733262 7.9733274 7.9733274 0 0 0 7.973326 7.973327 7.9733274 7.9733274 0 0 0 7.973327-7.973327 7.9733274 7.9733274 0 0 0 -7.973327-7.9733262z" fill="url(#linearGradient10191)" stroke-dasharray=".331 1.324" stroke-linecap="square" stroke-width=".331" paint-order="markers fill stroke"/><path id="path10197" d="m1.52523 4.943628v.2635491h.529167v-.2635491zm1.321883 0v.2635491h.529684v-.2635491zm1.246953 0v.2635491h.527099v-.2635491zm1.321883 0v.2635491h.529683v-.2635491zm1.3224 0v.2635491h.529166v-.2635491zm1.3224 0v.2635491h.529166v-.2635491zm1.32395 0v.2635491h.529683v-.2635491zm9.2599 0v.2635491h.529167v-.2635491zm1.3224 0v.2635491h.529167v-.2635491zm1.324467 0v.2635491h.529167v-.2635491zm1.321883 0v.2635491h.529167v-.2635491zm1.3224 0v.2635491h.529167v-.2635491zm1.262455 0v.2635491h.529167v-.2635491zm1.321883 0v.2635491h.529685v-.2635491z" fill="#e53b38" font-variant-ligatures="normal" font-variant-position="normal" font-variant-caps="normal" font-variant-numeric="normal" font-variant-alternates="normal" font-variant-east-asian="normal" font-feature-settings="normal" font-variation-settings="normal" text-indent="0" text-align="start" text-decoration-line="none" text-decoration-style="solid" text-decoration-color="#000000" text-transform="none" text-orientation="mixed" white-space="normal" shape-padding="0" shape-margin="0" inline-size="0" isolation="auto" mix-blend-mode="normal" solid-color="#000000" solid-opacity="1" vector-effect="none" paint-order="markers fill stroke"/><path id="path4552-7-2" d="m9.410687 22.986328c-.730899 0-1.323899.59139-1.324299 1.32228.000396.73086.5934 1.32297 1.324299 1.32225h.261501c.730199 0 1.321899-.59213 1.322299-1.32225-.000291-.73015-.5921-1.32191-1.322299-1.32228z" fill="url(#linearGradient6961-3)" font-variant-ligatures="normal" font-variant-position="normal" font-variant-caps="normal" font-variant-numeric="normal" font-variant-alternates="normal" font-variant-east-asian="normal" font-feature-settings="normal" font-variation-settings="normal" text-indent="0" text-align="start" text-decoration-line="none" text-decoration-style="solid" text-decoration-color="#000000" text-transform="none" text-orientation="mixed" white-space="normal" shape-padding="0" shape-margin="0" inline-size="0" isolation="auto" mix-blend-mode="normal" solid-color="#000000" solid-opacity="1" vector-effect="none" paint-order="markers fill stroke"/><path id="path4608-1-0" d="m5.014088 22.986328c-.7309 0-1.3239.59139-1.3242 1.32228.0002.73086.5933 1.32297 1.3242 1.32225h.2616c.7301 0 1.321899-.59213 1.3222-1.32225-.000201-.73015-.5921-1.32191-1.3222-1.32228z" fill="url(#linearGradient6965-6)" font-variant-ligatures="normal" font-variant-position="normal" font-variant-caps="normal" font-variant-numeric="normal" font-variant-alternates="normal" font-variant-east-asian="normal" font-feature-settings="normal" font-variation-settings="normal" text-indent="0" text-align="start" text-decoration-line="none" text-decoration-style="solid" text-decoration-color="#000000" text-transform="none" text-orientation="mixed" white-space="normal" shape-padding="0" shape-margin="0" inline-size="0" isolation="auto" mix-blend-mode="normal" solid-color="#000000" solid-opacity="1" vector-effect="none" paint-order="markers fill stroke"/><path id="path4309-0-1-8-05" d="m27.769009 13.273505-4.0451 2.98717-1.8721-.81429c-1.1978-.61252-2.2853.378911-1.5875 1.58749l2.1359 3.19385c.5845.81911 1.9836.865321 2.6454 0l4.3089-5.36674c.8541-1.15649-.4919-2.414159-1.5855-1.58748z" fill="url(#linearGradient10382-2)" font-variant-ligatures="normal" font-variant-position="normal" font-variant-caps="normal" font-variant-numeric="normal" font-variant-alternates="normal" font-variant-east-asian="normal" font-feature-settings="normal" font-variation-settings="normal" text-indent="0" text-align="start" text-decoration-line="none" text-decoration-style="solid" text-decoration-color="#000000" text-transform="none" text-orientation="mixed" white-space="normal" shape-padding="0" shape-margin="0" inline-size="0" isolation="auto" mix-blend-mode="normal" solid-color="#000000" solid-opacity="1" vector-effect="none" paint-order="markers fill stroke"/></g></svg>