<?xml version="1.0" encoding="UTF-8"?>
<!DOCTYPE svg PUBLIC "-//W3C//DTD SVG 1.1//EN" "http://www.w3.org/Graphics/SVG/1.1/DTD/svg11.dtd">
<!-- Creator: CorelDRAW -->
<svg xmlns="http://www.w3.org/2000/svg" xml:space="preserve" width="512px" height="512px" version="1.1" style="shape-rendering:geometricPrecision; text-rendering:geometricPrecision; image-rendering:optimizeQuality; fill-rule:evenodd; clip-rule:evenodd"
viewBox="0 0 512 512"
 xmlns:xlink="http://www.w3.org/1999/xlink"
 xmlns:xodm="http://www.corel.com/coreldraw/odm/2003">
 <defs>
  <style type="text/css">
   <![CDATA[
    .fil3 {fill:#152525}
    .fil8 {fill:#20384B}
    .fil1 {fill:#27455C}
    .fil0 {fill:#2B4D66}
    .fil9 {fill:#647D8F}
    .fil7 {fill:#D03D3E}
    .fil6 {fill:#FB666B}
    .fil5 {fill:#FF9E56}
    .fil2 {fill:#FFB387}
    .fil4 {fill:#FFC269}
   ]]>
  </style>
 </defs>
 <g id="Layer_x0020_1">
  <metadata id="CorelCorpID_0Corel-Layer"/>
  <g id="_2023990439968">
   <path class="fil0" d="M279.65 162.34c-3.86,0 -6.99,-3.13 -6.99,-6.99l-30.59 0c0,3.86 -3.13,6.99 -6.99,6.99 -3.86,0 -6.99,-3.13 -6.99,-6.99l0 -79.99c0,-3.86 3.13,-6.98 6.99,-6.98l44.57 0c3.86,0 6.99,3.12 6.99,6.98l0 79.99c0,3.86 -3.13,6.99 -6.99,6.99z"/>
   <path class="fil1" d="M235.51 292.61c-0.6,0 -1.21,-0.08 -1.82,-0.24 -1.88,-0.51 -3.37,-1.73 -4.26,-3.3 -9.99,2.16 -34.6,3.54 -37.08,3.54 -0.6,0 -1.21,-0.08 -1.81,-0.24 -3.73,-1 -5.94,-4.84 -4.94,-8.56l22.15 -82.68c1,-3.73 4.83,-5.94 8.56,-4.94 3.73,1 35.51,8.07 34.51,11.79l-4.74 21.86c1.36,-0.55 2.91,-0.68 4.44,-0.27 3.72,1 5.94,4.83 4.94,8.56l-13.21 49.29c-0.84,3.12 -3.66,5.19 -6.74,5.19zm-82.12 219.39c-0.68,0 -1.37,-0.1 -2.04,-0.3 -2.41,-0.74 -4.24,-2.72 -4.78,-5.18l-8.97 -40.53c-0.25,-1.1 -0.22,-2.24 0.07,-3.32l22.1 -82.48c1,-3.72 4.83,-5.94 8.56,-4.94 2.15,0.58 3.8,2.1 4.61,4.01 9.79,-2.81 35.49,-4.82 38.54,-4.01 3.73,1 5.94,4.83 4.95,8.56l-25 93.26c-0.33,1.25 -1,2.37 -1.93,3.26l-31.29 29.75c-1.32,1.25 -3.05,1.92 -4.82,1.92z"/>
   <path class="fil1" d="M361.34 512c-1.77,0 -3.5,-0.67 -4.82,-1.92l-31.29 -29.75c-0.93,-0.88 -1.6,-2.01 -1.94,-3.25l-24.99 -93.27c-0.99,-3.73 1.22,-7.56 4.95,-8.56 3.4,-0.91 4.32,0.88 5.22,4.03 9.45,-2.27 34.94,-3.23 37.93,-4.03 3.73,-1 7.56,1.21 8.56,4.94l22.1 82.48c0.29,1.08 0.32,2.22 0.07,3.32l-8.97 40.53c-0.54,2.46 -2.37,4.44 -4.78,5.18 -0.67,0.2 -1.36,0.3 -2.04,0.3zm-38.96 -219.39c-3.09,0 -35.58,8.66 -36.41,5.54l-1.99 -7.41c-0.81,0.75 -1.81,1.32 -2.95,1.63 -0.6,0.16 -1.21,0.24 -1.81,0.24 -3.08,0 -5.91,-2.06 -6.74,-5.19l-13.21 -49.29c-1,-3.73 1.21,-7.56 4.94,-8.56 1.14,-0.31 2.29,-0.31 3.36,-0.06l-3.76 -14.04c-1,-3.72 30.88,-18.28 34.61,-19.28 3.73,-1 7.56,1.21 8.56,4.94l22.15 82.68c1,3.72 -1.21,7.56 -4.94,8.56 -0.6,0.16 -1.21,0.24 -1.81,0.24z"/>
   <g>
    <path class="fil2" d="M201.59 0.91c-0.04,-0.03 -0.08,-0.05 -0.11,-0.07 -2.05,-1.13 -4.45,-1.12 -6.11,0.02l-45.55 31.25c-2.29,1.58 -2.46,4.77 -0.37,7.13 2.08,2.36 5.63,3.01 7.92,1.43l34.5 20.15c-0.08,2.79 2.36,5.46 5.46,5.97 3.09,0.5 5.67,-1.36 5.75,-4.15l1.67 -56.59c0.05,-1.99 -1.19,-4 -3.16,-5.14z"/>
    <path class="fil3" d="M96.27 237.03c-2.79,-1.61 -5.71,-1.77 -6.52,-0.37l-33.79 -19.51c0.81,-1.4 -0.79,-3.85 -3.58,-5.45 -2.78,-1.61 -5.7,-1.78 -6.51,-0.37l-12.87 22.29c-0.82,1.41 0.79,3.85 3.57,5.46l43.89 25.34c2.78,1.61 5.7,1.77 6.51,0.36l12.87 -22.29c0.82,-1.4 -0.79,-3.85 -3.57,-5.46z"/>
    <path class="fil4" d="M199.92 57.5l-43.88 -25.34c-2.79,-1.61 -6.14,-1.02 -7.49,1.32l-103.66 179.54 53.98 31.16 103.66 -179.54c0.64,-1.12 0.73,-2.5 0.25,-3.84 -0.49,-1.35 -1.52,-2.53 -2.86,-3.3z"/>
    <polygon class="fil5" points="183.03,47.74 172.94,41.91 66.83,225.68 76.93,231.51 "/>
   </g>
   <g>
    <path class="fil6" d="M35.51 381.86l0 -96.11c0,-4.28 3.47,-7.75 7.75,-7.75l428.21 0c4.28,0 7.74,3.47 7.74,7.75l0 96.11c0,4.28 -3.46,7.75 -7.74,7.75l-428.21 0c-4.28,0 -7.75,-3.47 -7.75,-7.75z"/>
    <path class="fil7" d="M433.41 389.61l-15.5 0 0 -46.21c0,-4.28 3.47,-7.75 7.75,-7.75 4.28,0 7.75,3.47 7.75,7.75l0 46.21zm-42.07 0l-15.5 0 0 -34.01c0,-4.28 3.47,-7.75 7.75,-7.75 4.28,0 7.75,3.47 7.75,7.75l0 34.01zm-42.08 0l-15.5 0 0 -46.21c0,-4.28 3.47,-7.75 7.75,-7.75 4.28,0 7.75,3.47 7.75,7.75l0 46.21zm-42.07 0l-15.5 0 0 -34.01c0,-4.28 3.47,-7.75 7.75,-7.75 4.28,0 7.75,3.47 7.75,7.75l0 34.01zm-42.08 0l-15.49 0 0 -46.21c0,-4.28 3.46,-7.75 7.74,-7.75 4.28,0 7.75,3.47 7.75,7.75l0 46.21zm-42.07 0l-15.5 0 0 -34.01c0,-4.28 3.47,-7.75 7.75,-7.75 4.28,0 7.75,3.47 7.75,7.75l0 34.01zm-42.08 0l-15.5 0 0 -46.21c0,-4.28 3.47,-7.75 7.75,-7.75 4.28,0 7.75,3.47 7.75,7.75l0 46.21zm-42.07 0l-15.5 0 0 -34.01c0,-4.28 3.47,-7.75 7.75,-7.75 4.28,0 7.75,3.47 7.75,7.75l0 34.01zm-42.08 0l-15.49 0 0 -46.21c0,-4.28 3.47,-7.75 7.74,-7.75 4.29,0 7.75,3.47 7.75,7.75l0 46.21z"/>
   </g>
   <path class="fil8" d="M257.36 244.16c-28.08,0 -50.93,-22.85 -50.93,-50.93 0,-28.08 22.85,-50.93 50.93,-50.93 28.09,0 50.94,22.85 50.94,50.93 -0.01,28.09 -22.85,50.93 -50.94,50.93z"/>
   <path class="fil9" d="M257.36 223.68c-16.78,0 -30.44,-13.66 -30.44,-30.45 0,-16.79 13.66,-30.45 30.44,-30.45 16.79,0 30.45,13.66 30.45,30.45 0,16.79 -13.66,30.45 -30.45,30.45z"/>
  </g>
 </g>
</svg>
