<svg xmlns="http://www.w3.org/2000/svg" viewBox="0 0 223.63 223.63"><title>Competitive_advantage</title><g id="Competitive_advantage"><path d="M111.89,16.15a3,3,0,0,0,3-2.75V6.86a3,3,0,0,0-6,0V13.4A3,3,0,0,0,111.89,16.15Z" id="id_106" style="fill: rgb(33, 98, 129);"></path><path d="M133.93,24.83a2.75,2.75,0,0,0,1.94-.8l4.63-4.63a2.75,2.75,0,0,0-3.89-3.89L132,20.14a2.75,2.75,0,0,0,2,4.69Z" id="id_107" style="fill: rgb(33, 98, 129);"></path><path d="M88.18,24.81a2.75,2.75,0,1,0,3.89-3.89L87.45,16.3a2.75,2.75,0,1,0-3.89,3.89Z" id="id_108" style="fill: rgb(33, 98, 129);"></path><path d="M75.2,54.52a38.1,38.1,0,0,1,.19-15.65A2.75,2.75,0,0,0,70,37.67a43.3,43.3,0,0,0-1,9.45,44,44,0,0,0,.82,8.47,2.75,2.75,0,0,0,2.7,2.21,2.44,2.44,0,0,0,.53,0A2.75,2.75,0,0,0,75.2,54.52Z" id="id_109" style="fill: rgb(33, 98, 129);"></path><path d="M149.36,62.57a2.76,2.76,0,0,0-3.69,1.24,37.55,37.55,0,0,1-67.29,0,2.75,2.75,0,0,0-3.68-1.24,2.6,2.6,0,0,0-1.24,3.55A42.69,42.69,0,0,0,112,89.9h0a42.68,42.68,0,0,0,38.54-23.78A2.59,2.59,0,0,0,149.36,62.57Z" id="id_110" style="fill: rgb(33, 98, 129);"></path><path d="M154.24,55.59a43.59,43.59,0,0,0,.83-8.47,43,43,0,0,0-1-9.48,2.75,2.75,0,1,0-5.36,1.2,38.26,38.26,0,0,1,.91,8.28,37.19,37.19,0,0,1-.73,7.39A2.76,2.76,0,0,0,151,57.75a2.53,2.53,0,0,0,.54,0A2.75,2.75,0,0,0,154.24,55.59Z" id="id_111" style="fill: rgb(33, 98, 129);"></path><path d="M138.6,99.9H85a3.5,3.5,0,0,0-3.15,3.39V216.78A3.25,3.25,0,0,0,85,219.9H138.6a3.37,3.37,0,0,0,3.29-3.12V103.29A3.62,3.62,0,0,0,138.6,99.9Z" id="id_112" style="fill: rgb(33, 98, 129);"></path><path d="M91,44.84l9.82,7.22a2.14,2.14,0,0,1,.75,2.36L97.8,66A2.08,2.08,0,0,0,101,68.31l9.82-7.12a2.09,2.09,0,0,1,2.44,0l9.81,7.14A2.07,2.07,0,0,0,126.25,66L122.5,54.47a2.09,2.09,0,0,1,.76-2.32l9.81-7.31a2.2,2.2,0,0,0-1.22-3.94H119.72a1.92,1.92,0,0,1-2-1.25L114,28.21a2.08,2.08,0,0,0-4,0l-3.74,11.38a2,2,0,0,1-2,1.27H92.2A2.2,2.2,0,0,0,91,44.84Z" id="id_113" style="fill: rgb(33, 98, 129);"></path><rect x="10.89" y="157.9" width="60" height="62" rx="3" id="id_114" style="fill: rgb(33, 98, 129);"></rect><path d="M34.9,124.75a1.31,1.31,0,0,1,.48,1.47l-1.3,4a1.32,1.32,0,0,0,2,1.47l3.39-2.47a1.34,1.34,0,0,1,1.55,0l3.39,2.47a1.32,1.32,0,0,0,2-1.47l-1.3-4a1.31,1.31,0,0,1,.48-1.47L49,122.28a1.32,1.32,0,0,0-.77-2.38h-4.2a1.32,1.32,0,0,1-1.25-.91l-1.29-4A1.32,1.32,0,0,0,39,115l-1.29,4a1.32,1.32,0,0,1-1.25.91h-4.2a1.32,1.32,0,0,0-.77,2.38Z" id="id_115" style="fill: rgb(33, 98, 129);"></path><path d="M40.28,148.13A24.29,24.29,0,1,0,16,123.84,24.31,24.31,0,0,0,40.28,148.13Zm0-43.07a18.79,18.79,0,1,1-18.79,18.78A18.78,18.78,0,0,1,40.28,105.06Z" id="id_116" style="fill: rgb(33, 98, 129);"></path><rect x="153.89" y="157.9" width="60" height="62" rx="3" id="id_117" style="fill: rgb(33, 98, 129);"></rect><path d="M178,124.75a1.31,1.31,0,0,1,.48,1.47l-1.3,4a1.32,1.32,0,0,0,2,1.47l3.39-2.47a1.34,1.34,0,0,1,1.55,0l3.39,2.47a1.32,1.32,0,0,0,2-1.47l-1.3-4a1.31,1.31,0,0,1,.48-1.47l3.39-2.47a1.32,1.32,0,0,0-.77-2.38h-4.2a1.32,1.32,0,0,1-1.25-.91l-1.29-4a1.32,1.32,0,0,0-2.51,0l-1.29,4a1.32,1.32,0,0,1-1.25.91h-4.2a1.32,1.32,0,0,0-.77,2.38Z" id="id_118" style="fill: rgb(33, 98, 129);"></path><path d="M183.36,148.13a24.29,24.29,0,1,0-24.28-24.29A24.31,24.31,0,0,0,183.36,148.13Zm0-43.07a18.79,18.79,0,1,1-18.78,18.78A18.78,18.78,0,0,1,183.36,105.06Z" id="id_119" style="fill: rgb(33, 98, 129);"></path></g></svg>