<svg version="1.1" xmlns="http://www.w3.org/2000/svg" xmlns:xlink="http://www.w3.org/1999/xlink" x="0px" y="0px" width="24px" height="24px" viewBox="0 0 24 24" enable-background="new 0 0 24 24" xml:space="preserve">
<g id="Black">
	<g>
		<polygon fill="none" stroke="#216281" stroke-linecap="round" stroke-linejoin="round" stroke-miterlimit="10" points="14.5,15 
			11.5,16.5 8.5,15 8.5,11 11.5,9.5 14.5,11 		" id="id_101"></polygon>
		<g>
			<polyline fill="none" stroke="#216281" stroke-linecap="round" stroke-linejoin="round" stroke-miterlimit="10" points="8.5,11 
				11,12.5 14.5,12.5 			" id="id_102"></polyline>
		</g>
		<polyline fill="none" stroke="#216281" stroke-linecap="round" stroke-linejoin="round" stroke-miterlimit="10" points="
			16.5,20.5 16.5,19 11.5,17.5 6.5,19 6.5,20.5 		" id="id_103"></polyline>
		<polygon fill="none" stroke="#a4883f" stroke-linecap="round" stroke-linejoin="round" stroke-miterlimit="10" points="23.5,2.5 
			20.5,3.5 20.5,1.5 13.5,1.5 13.5,7.5 20.5,7.5 20.5,5.5 23.5,6.5 		" id="id_104"></polygon>
		<polyline fill="none" stroke="#216281" stroke-linecap="round" stroke-linejoin="round" stroke-miterlimit="10" points="10.5,7.5 
			2.5,7.5 2.5,20.5 		" id="id_105"></polyline>
		
			<line fill="none" stroke="#216281" stroke-linecap="round" stroke-linejoin="round" stroke-miterlimit="10" x1="20.5" y1="20.5" x2="20.5" y2="10.5" id="id_106"></line>
		<polygon fill="none" stroke="#216281" stroke-linecap="round" stroke-linejoin="round" stroke-miterlimit="10" points="0.5,20.5 
			9.469,20.5 11.5,21.5 13.563,20.5 22.5,20.5 20,23.5 3.5,23.5 		" id="id_107"></polygon>
	</g>
</g>
<g id="Frames-24px">
	<rect fill="none" width="24" height="24" id="id_108"></rect>
</g>
</svg>