<svg id="Layer_1" data-name="Layer 1" xmlns="http://www.w3.org/2000/svg" viewBox="0 0 128 128"><defs><style>.cls-1{fill:#1d75b8;}.cls-2{fill:#2d3e50;}</style></defs><title>v</title><rect class="cls-1" x="16.65065" y="72.76473" width="10.2034" height="10.2034" id="id_133"></rect><rect class="cls-1" x="34.68074" y="72.76473" width="10.20348" height="10.2034" id="id_134"></rect><rect class="cls-1" x="16.65065" y="91.16987" width="10.2034" height="10.2034" id="id_135"></rect><rect class="cls-1" x="34.68074" y="91.16987" width="10.20348" height="10.2034" id="id_136"></rect><rect class="cls-1" x="39.63263" y="36.94183" width="10.20348" height="10.20348" id="id_137"></rect><rect class="cls-1" x="57.6628" y="36.94183" width="10.2034" height="10.20348" id="id_138"></rect><path class="cls-2" d="M57.84273,116.58567V52.92859H31.831V31.16067l43.75-16.62713v28.716h-.174V59.22069l7.12211-1.5529V43.24953L82.5157,4.47959,24.89635,26.368V50.626H1.37468v72.89441H82.5291v-5.422c-.57565-.49533-1.1379-.99065-1.70023-1.51278Zm-4.61867,0H8.30935v-59.025H53.22406Z" id="id_139"></path><path class="cls-1" d="M100.95843,59.79225l-25.66706,5.629V94.76945a18.95343,18.95343,0,0,0,5.12936,12.9916,80.51674,80.51674,0,0,0,20.5377,15.755A80.34143,80.34143,0,0,0,121.496,107.761a18.90642,18.90642,0,0,0,5.12928-12.9916V65.42127Z" id="id_140"></path></svg>